<?xml version="1.0" encoding="UTF-8"?>
<svg version="1.1" xmlns="http://www.w3.org/2000/svg" width="512" height="512">
<path d="M0 0 C0.71505644 -0.00436032 1.43011288 -0.00872064 2.16683769 -0.0132131 C4.58142566 -0.02422873 6.99544965 -0.01371839 9.41003418 -0.00342751 C11.15115401 -0.00688159 12.89227166 -0.01164446 14.6333847 -0.01760924 C19.432338 -0.03018325 24.23111333 -0.0239199 29.03006744 -0.01465058 C34.19986707 -0.00788652 39.36963525 -0.01832815 44.53942871 -0.02659035 C54.67277081 -0.03995821 64.80604639 -0.03703637 74.93939114 -0.02835242 C83.1720427 -0.02158827 91.40467556 -0.02065365 99.6373291 -0.02392387 C100.80725891 -0.02438357 101.97718871 -0.02484327 103.18257093 -0.0253169 C105.55896315 -0.02627604 107.93535535 -0.02724868 110.31174755 -0.02823468 C132.61615184 -0.03679751 154.92051918 -0.02694043 177.22491741 -0.01083358 C196.37974047 0.00257041 215.53450899 0.00024257 234.68933105 -0.01358986 C256.91174468 -0.0296299 279.13412589 -0.03597346 301.35654449 -0.02675307 C303.72439066 -0.02579738 306.09223683 -0.02485427 308.46008301 -0.02392387 C309.62523044 -0.02346105 310.79037787 -0.02299822 311.99083281 -0.02252137 C320.21740717 -0.01992675 328.44396104 -0.02431263 336.67053223 -0.03136253 C346.69051217 -0.03976025 356.71042158 -0.0375339 366.73039341 -0.0215203 C371.84664863 -0.01361424 376.96278607 -0.01058557 382.07904053 -0.02046776 C386.7570297 -0.02936704 391.43479125 -0.02456108 396.11275959 -0.0085351 C397.81055633 -0.00516697 399.50837207 -0.00692656 401.20615673 -0.01416247 C403.50352024 -0.02320729 405.80009092 -0.01400877 408.09741211 0 C410.01616779 0.00073059 410.01616779 0.00073059 411.97368622 0.00147593 C415.04870605 0.37752342 415.04870605 0.37752342 416.95921755 1.39265484 C418.72300106 4.60597784 418.46099342 7.94055988 418.4318161 11.51294422 C418.43677562 12.35601746 418.44173513 13.19909071 418.44684494 14.06771162 C418.45988943 16.91774968 418.45138849 19.767326 418.44311523 22.61737633 C418.44799995 24.67126871 418.45418779 26.72515834 418.46157312 28.77904326 C418.47804895 34.44256745 418.47563924 40.10595314 418.47019815 45.76949298 C418.46753734 51.86979583 418.48204182 57.97006097 418.49429321 64.07034874 C418.51538944 76.0288343 418.51990448 87.98725946 418.51810533 99.94575685 C418.51673371 109.66152393 418.5205428 119.37727627 418.5280304 129.09304047 C418.52908072 130.48755414 418.53012833 131.88206781 418.53117326 133.27658148 C418.5316926 133.96878258 418.53221195 134.66098368 418.53274703 135.37416057 C418.53326717 136.06760893 418.53378731 136.76105729 418.53432322 137.47551924 C418.5351092 138.51739679 418.5351092 138.51739679 418.53591107 139.58032236 C418.55050012 159.12357499 418.5587743 178.66682219 418.55416107 198.21008015 C418.55398912 198.94724563 418.55381716 199.68441112 418.55364 200.44391496 C418.55275107 204.18039218 418.55180626 207.91686939 418.55084199 211.65334659 C418.55065095 212.39545874 418.55045992 213.13757088 418.5502631 213.90217127 C418.54987601 215.40290311 418.54948568 216.90363494 418.54909212 218.40436677 C418.54312093 241.76028693 418.55856326 265.11610803 418.59069824 288.47200584 C418.62674893 314.69627231 418.64611148 340.92047596 418.64115953 367.14476877 C418.64068954 369.93924271 418.64027929 372.73371666 418.63990784 375.52819061 C418.63975426 376.56034023 418.63975426 376.56034023 418.63959758 377.61334136 C418.63840116 388.01516603 418.65039054 398.41692298 418.66905212 408.8187294 C418.69025701 420.64406692 418.69371002 432.46925714 418.67475253 444.29461353 C418.6655621 450.33255126 418.66455261 456.3702051 418.68510818 462.40812111 C418.70369779 467.92943558 418.69945049 473.45023128 418.67656237 478.97152526 C418.67234606 480.97485894 418.67667712 482.97823147 418.69015831 484.98152422 C418.70717513 487.69374098 418.69373904 490.40411666 418.67232513 493.11626148 C418.69074142 494.29765913 418.69074142 494.29765913 418.70952976 495.5029234 C418.64491265 499.3893894 418.3929181 501.02190507 415.64286262 503.86309034 C413.02919104 505.38891602 411.74091118 505.87398104 408.76493835 505.85854149 C407.53036896 505.86678947 407.53036896 505.86678947 406.27085876 505.87520409 C404.93729088 505.85363243 404.93729088 505.85363243 403.57678223 505.83162498 C402.62995575 505.83220909 401.68312927 505.8327932 400.70761108 505.833395 C397.5852564 505.83061344 394.46386225 505.79951742 391.3416748 505.76814842 C389.17406231 505.76068631 387.00644307 505.75499324 384.83882141 505.75099754 C379.13898023 505.73573901 373.43954799 505.69645486 367.73986816 505.65218163 C361.92164644 505.61123393 356.10335852 505.59298757 350.28503418 505.57283592 C338.87274532 505.52996118 327.46075972 505.46170683 316.04870605 505.37752342 C315.94558105 506.16127342 315.84245605 506.94502342 315.73620605 507.75252342 C315.04870605 510.37752342 315.04870605 510.37752342 312.04870605 512.37752342 C306.87658657 512.95220337 306.87658657 512.95220337 304.04870605 512.37752342 C301.54870605 510.00252342 301.54870605 510.00252342 300.04870605 507.37752342 C300.04870605 506.71752342 300.04870605 506.05752342 300.04870605 505.37752342 C295.42870605 505.37752342 290.80870605 505.37752342 286.04870605 505.37752342 C285.71870605 507.02752342 285.38870605 508.67752342 285.04870605 510.37752342 C282.63383662 512.79239286 281.92162817 512.67371592 278.61120605 512.69002342 C277.82874512 512.70678123 277.04628418 512.72353905 276.2401123 512.74080467 C273.52945197 512.29144387 272.7014997 511.53575855 271.04870605 509.37752342 C270.71870605 508.38752342 270.38870605 507.39752342 270.04870605 506.37752342 C265.75870605 506.04752342 261.46870605 505.71752342 257.04870605 505.37752342 C256.38870605 507.02752342 255.72870605 508.67752342 255.04870605 510.37752342 C253.04870605 512.37752342 253.04870605 512.37752342 249.17370605 512.75252342 C246.02143238 512.67801514 245.2048193 512.49070553 242.54870605 510.56502342 C241.04870605 508.37752342 241.04870605 508.37752342 241.04870605 505.37752342 C236.42870605 505.37752342 231.80870605 505.37752342 227.04870605 505.37752342 C226.38870605 507.02752342 225.72870605 508.67752342 225.04870605 510.37752342 C223.04870605 512.37752342 223.04870605 512.37752342 219.17370605 512.75252342 C216.02143238 512.67801514 215.2048193 512.49070553 212.54870605 510.56502342 C211.04870605 508.37752342 211.04870605 508.37752342 211.04870605 505.37752342 C206.42870605 505.37752342 201.80870605 505.37752342 197.04870605 505.37752342 C196.71870605 507.02752342 196.38870605 508.67752342 196.04870605 510.37752342 C192.83414536 512.52056389 190.8194219 512.84962816 186.9901123 512.77205467 C185.04870605 512.37752342 185.04870605 512.37752342 182.54870605 510.00252342 C181.04870605 507.37752342 181.04870605 507.37752342 181.04870605 505.37752342 C176.42870605 505.37752342 171.80870605 505.37752342 167.04870605 505.37752342 C166.71870605 507.02752342 166.38870605 508.67752342 166.04870605 510.37752342 C162.83414536 512.52056389 160.8194219 512.84962816 156.9901123 512.77205467 C155.04870605 512.37752342 155.04870605 512.37752342 152.54870605 510.00252342 C151.04870605 507.37752342 151.04870605 507.37752342 151.04870605 505.37752342 C148.9438705 505.41055223 146.83958176 505.47996889 144.73620605 505.56502342 C143.56444824 505.59982811 142.39269043 505.6346328 141.1854248 505.67049217 C137.86440103 506.06166512 137.86440103 506.06166512 136.1932373 508.86580467 C135.81554199 509.69467186 135.43784668 510.52353905 135.04870605 511.37752342 C133.469482 512.95674748 131.85426732 512.58518243 129.67370605 512.62752342 C128.88222168 512.65330467 128.0907373 512.67908592 127.27526855 512.70564842 C125.04870605 512.37752342 125.04870605 512.37752342 123.25964355 511.11189842 C122.04870605 509.37752342 122.04870605 509.37752342 122.04870605 505.37752342 C117.42870605 505.37752342 112.80870605 505.37752342 108.04870605 505.37752342 C107.38870605 507.02752342 106.72870605 508.67752342 106.04870605 510.37752342 C104.04870605 512.37752342 104.04870605 512.37752342 100.17370605 512.75252342 C97.02143238 512.67801514 96.2048193 512.49070553 93.54870605 510.56502342 C92.04870605 508.37752342 92.04870605 508.37752342 92.04870605 505.37752342 C90.84458572 505.38640587 89.64046539 505.39528831 88.39985657 505.40443993 C77.05531889 505.48550664 65.71083993 505.54547976 54.36607838 505.58477211 C48.53352097 505.60565179 42.7011973 505.6339769 36.86877441 505.67928123 C31.24074186 505.72272463 25.61293421 505.74665766 19.98474693 505.75703239 C17.83691556 505.76442641 15.68909656 505.77886509 13.54136086 505.80044365 C10.5341794 505.82945708 7.52792866 505.83348022 4.52062988 505.83162498 C3.63158463 505.84600609 2.74253937 505.86038719 1.82655334 505.87520409 C1.00350708 505.86970543 0.18046082 505.86420677 -0.66752625 505.85854149 C-1.37822864 505.86222866 -2.08893103 505.86591583 -2.82116985 505.86971474 C-6.0928045 505.1137634 -7.61671972 503.78945945 -9.95129395 501.37752342 C-10.45022539 498.43198212 -10.62083157 496.06191796 -10.57491302 493.11626148 C-10.58158104 492.2717348 -10.58824905 491.42720812 -10.59511912 490.55708972 C-10.61144993 487.70782586 -10.59192784 484.85991731 -10.57275391 482.01068687 C-10.57707994 479.95521657 -10.58359323 477.89974989 -10.59211397 475.8442927 C-10.60916985 470.18098406 -10.59487937 464.51811492 -10.57559919 458.85482919 C-10.5602192 452.75319949 -10.57356185 446.65162531 -10.58334351 440.54999352 C-10.59705474 429.28303176 -10.58814103 418.01625204 -10.56792734 406.74931532 C-10.54938769 396.3422625 -10.5409472 385.93525996 -10.54249573 375.52819061 C-10.5425874 374.83850025 -10.54267908 374.14880989 -10.54277353 373.43821981 C-10.54316667 370.63871902 -10.54361629 367.83921825 -10.54414492 365.03971748 C-10.54901845 338.76669597 -10.52633726 312.49376373 -10.4901887 286.22076997 C-10.45819072 262.86471814 -10.4461455 239.50874256 -10.45227051 216.15266991 C-10.45265735 214.65289547 -10.45304381 213.15312103 -10.45342988 211.65334659 C-10.45362122 210.91189608 -10.45381257 210.17044558 -10.45400971 209.40652687 C-10.45496401 205.67437797 -10.45587838 201.94222907 -10.45674896 198.21008015 C-10.45692276 197.47382808 -10.45709655 196.73757602 -10.45727561 195.97901328 C-10.46162792 176.4778439 -10.4516227 156.97668278 -10.43691111 137.47551924 C-10.43639096 136.78207088 -10.43587082 136.08862252 -10.43533492 135.37416057 C-10.43481558 134.68195947 -10.43429623 133.98975837 -10.43376115 133.27658148 C-10.43324341 132.58562693 -10.43272567 131.89467237 -10.43219224 131.1827798 C-10.43114415 129.79122964 -10.43008394 128.39967949 -10.42901152 127.00812935 C-10.42162246 117.29539597 -10.41954425 107.58267425 -10.42100552 97.8699384 C-10.42284888 85.35573349 -10.41449669 72.841606 -10.38936406 60.32741874 C-10.3774707 54.28967159 -10.37040103 48.25202034 -10.37620163 42.21426201 C-10.38134818 36.69437381 -10.37277525 31.17468876 -10.35292703 25.65483541 C-10.34816108 23.65088277 -10.34852024 21.64691052 -10.35433739 19.64296066 C-10.36144854 16.93270895 -10.35034718 14.22314352 -10.33440399 11.51294422 C-10.3408558 10.72300462 -10.3473076 9.93306502 -10.35395491 9.11918786 C-10.32191729 6.24583166 -10.26196693 3.94351842 -8.86180544 1.39265484 C-5.90217036 -0.17991803 -3.33693567 0.00127057 0 0 Z " fill="#85F0A6" transform="translate(51.9512939453125,-0.37752342224121094)"/>
<path d="M0 0 C7.76440271 -0.06289795 15.52788379 -0.12300293 23.29232025 -0.15525055 C26.90796295 -0.17109746 30.52339495 -0.19227622 34.13891602 -0.22631836 C37.62078122 -0.25889717 41.10244201 -0.27684975 44.58444786 -0.28463173 C46.56042097 -0.29287856 48.53631175 -0.31630038 50.51216125 -0.33988953 C52.31368904 -0.34022942 52.31368904 -0.34022942 54.15161133 -0.34057617 C55.21084305 -0.34723801 56.27007477 -0.35389984 57.36140442 -0.36076355 C60 0 60 0 61.64096785 1.01408392 C63.78419999 4.14592974 63.41304177 7.4706699 63.38311005 11.1354208 C63.38806956 11.97849404 63.39302908 12.82156728 63.39813888 13.6901882 C63.41118337 16.54022626 63.40268244 19.38980258 63.39440918 22.23985291 C63.39929389 24.29374529 63.40548174 26.34763492 63.41286707 28.40151983 C63.42934289 34.06504403 63.42693318 39.72842972 63.4214921 45.39196956 C63.41883129 51.49227241 63.43333577 57.59253755 63.44558716 63.69282532 C63.46668338 75.65131088 63.47119842 87.60973604 63.46939927 99.56823342 C63.46802765 109.28400051 63.47183675 118.99975285 63.47932434 128.71551704 C63.48037466 130.11003071 63.48142228 131.50454439 63.4824672 132.89905806 C63.48298655 133.59125916 63.48350589 134.28346026 63.48404097 134.99663715 C63.48456112 135.69008551 63.48508126 136.38353387 63.48561716 137.09799582 C63.48640315 138.13987336 63.48640315 138.13987336 63.48720502 139.20279894 C63.50179406 158.74605157 63.51006824 178.28929877 63.50545502 197.83255672 C63.50528306 198.56972221 63.50511111 199.3068877 63.50493394 200.06639154 C63.50404502 203.80286876 63.5031002 207.53934596 63.50213593 211.27582317 C63.5019449 212.01793531 63.50175387 212.76004746 63.50155704 213.52464785 C63.50116995 215.02537968 63.50077963 216.52611152 63.50038607 218.02684335 C63.49441488 241.38276351 63.5098572 264.73858461 63.54199219 288.09448242 C63.57804288 314.31874889 63.59740542 340.54295254 63.59245348 366.76724535 C63.59198348 369.56171929 63.59157323 372.35619324 63.59120178 375.15066719 C63.5910482 376.18281681 63.5910482 376.18281681 63.59089152 377.23581794 C63.58969511 387.6376426 63.60168449 398.03939956 63.62034607 408.44120598 C63.64155096 420.2665435 63.64500396 432.09173372 63.62604648 443.91709011 C63.61685604 449.95502784 63.61584656 455.99268167 63.63640213 462.03059769 C63.65499173 467.55191216 63.65074443 473.07270786 63.62785631 478.59400184 C63.62364001 480.59733551 63.62797107 482.60070805 63.64145225 484.6040008 C63.65846908 487.31621756 63.64503298 490.02659324 63.62361908 492.73873806 C63.64203537 493.92013571 63.64203537 493.92013571 63.6608237 495.12539998 C63.59620659 499.01186597 63.34421204 500.64438165 60.59415656 503.48556691 C57.98048498 505.0113926 56.69220513 505.49645761 53.7162323 505.48101807 C52.4816629 505.48926605 52.4816629 505.48926605 51.22215271 505.49768066 C49.88858482 505.47610901 49.88858482 505.47610901 48.52807617 505.45410156 C47.58124969 505.45468567 46.63442322 505.45526978 45.65890503 505.45587158 C42.53655034 505.45309002 39.41515619 505.42199399 36.29296875 505.390625 C34.12535626 505.38316289 31.95773701 505.37746981 29.79011536 505.37347412 C24.09027417 505.35821559 18.39084193 505.31893143 12.69116211 505.2746582 C6.87294039 505.23371051 1.05465247 505.21546415 -4.76367188 505.1953125 C-16.17596073 505.15243776 -27.58794634 505.08418341 -39 505 C-39.1546875 506.175625 -39.1546875 506.175625 -39.3125 507.375 C-40 510 -40 510 -43 512 C-48.17211949 512.57467994 -48.17211949 512.57467994 -51 512 C-53.5 509.625 -53.5 509.625 -55 507 C-55 506.34 -55 505.68 -55 505 C-59.62 505 -64.24 505 -69 505 C-69.33 506.65 -69.66 508.3 -70 510 C-72.41486943 512.41486943 -73.12707789 512.2961925 -76.4375 512.3125 C-77.21996094 512.32925781 -78.00242187 512.34601562 -78.80859375 512.36328125 C-81.51925408 511.91392045 -82.34720635 511.15823513 -84 509 C-84.33 508.01 -84.66 507.02 -85 506 C-89.29 505.67 -93.58 505.34 -98 505 C-98.66 506.65 -99.32 508.3 -100 510 C-102 512 -102 512 -105.875 512.375 C-109.02727367 512.30049171 -109.84388675 512.11318211 -112.5 510.1875 C-114 508 -114 508 -114 505 C-118.62 505 -123.24 505 -128 505 C-128.66 506.65 -129.32 508.3 -130 510 C-132 512 -132 512 -135.875 512.375 C-139.02727367 512.30049171 -139.84388675 512.11318211 -142.5 510.1875 C-144 508 -144 508 -144 505 C-148.62 505 -153.24 505 -158 505 C-158.33 506.65 -158.66 508.3 -159 510 C-162.2145607 512.14304046 -164.22928416 512.47210474 -168.05859375 512.39453125 C-170 512 -170 512 -172.5 509.625 C-174 507 -174 507 -174 505 C-178.62 505 -183.24 505 -188 505 C-188.33 506.65 -188.66 508.3 -189 510 C-192.2145607 512.14304046 -194.22928416 512.47210474 -198.05859375 512.39453125 C-200 512 -200 512 -202.5 509.625 C-204 507 -204 507 -204 505 C-206.10483555 505.0330288 -208.2091243 505.10244546 -210.3125 505.1875 C-212.07013672 505.23970703 -212.07013672 505.23970703 -213.86328125 505.29296875 C-217.18430502 505.6841417 -217.18430502 505.6841417 -218.85546875 508.48828125 C-219.23316406 509.31714844 -219.61085938 510.14601563 -220 511 C-221.57922406 512.57922406 -223.19443874 512.207659 -225.375 512.25 C-226.16648438 512.27578125 -226.95796875 512.3015625 -227.7734375 512.328125 C-230 512 -230 512 -231.7890625 510.734375 C-233 509 -233 509 -233 505 C-237.62 505 -242.24 505 -247 505 C-247.66 506.65 -248.32 508.3 -249 510 C-251 512 -251 512 -254.875 512.375 C-258.02727367 512.30049171 -258.84388675 512.11318211 -261.5 510.1875 C-263 508 -263 508 -263 505 C-271.58 505 -280.16 505 -289 505 C-289.1151246 500.1238335 -289.21454423 495.25242207 -289.2746582 490.37597656 C-289.299726 488.71923811 -289.3337899 487.06260941 -289.37719727 485.40625 C-289.43819643 483.01795316 -289.46628526 480.63112407 -289.48828125 478.2421875 C-289.51408768 477.50757294 -289.5398941 476.77295837 -289.56648254 476.01608276 C-289.56861177 472.06793208 -289.04565516 469.57510713 -286.59448242 466.54736328 C-283.35392616 463.3656597 -282.05411988 462.87586259 -277.67891312 462.86298561 C-276.3095158 462.8553738 -276.3095158 462.8553738 -274.91245389 462.84760821 C-273.39818881 462.84686157 -273.39818881 462.84686157 -271.85333252 462.84609985 C-270.25228326 462.83952647 -270.25228326 462.83952647 -268.61888957 462.8328203 C-265.0183856 462.81939437 -261.41790611 462.81324494 -257.81738281 462.80712891 C-255.24557381 462.79923097 -252.67376593 462.79096222 -250.10195923 462.78234863 C-242.36670308 462.75781362 -234.63144048 462.74319585 -226.89615738 462.73028857 C-224.71191149 462.72657743 -222.52766624 462.72260413 -220.34342098 462.7185359 C-206.78393244 462.69330014 -193.22444291 462.67124374 -179.66493607 462.65880775 C-176.5233688 462.65587798 -173.38180156 462.65291633 -170.24023438 462.64990234 C-169.45939817 462.64915629 -168.67856197 462.64841024 -167.87406406 462.64764158 C-155.2231836 462.63498625 -142.57244363 462.60176152 -129.92162886 462.56010051 C-116.93769314 462.51769248 -103.95382936 462.49411404 -90.96982455 462.48888719 C-83.67798102 462.48547177 -76.38635703 462.47370141 -69.0945816 462.44078445 C-62.23602331 462.40987419 -55.37785387 462.40436076 -48.51923752 462.41616821 C-45.99970194 462.41638968 -43.48014903 462.40802463 -40.96067429 462.39051437 C-37.52485124 462.36793232 -34.09043085 462.37606834 -30.65460205 462.39199829 C-29.65401489 462.3781162 -28.65342772 462.36423412 -27.62251973 462.34993136 C-23.11839783 462.40150082 -19.99609337 462.51374265 -16.41926193 465.42233849 C-12.00630899 470.12422661 -11.7533619 472.92359958 -11.8046875 479.390625 C-11.80893234 480.44754547 -11.80893234 480.44754547 -11.81326294 481.52581787 C-11.82442199 483.7673876 -11.84951807 486.00855186 -11.875 488.25 C-11.88503536 489.77343171 -11.89416024 491.29686971 -11.90234375 492.8203125 C-11.92434709 496.54700586 -11.95884728 500.27346333 -12 504 C-8.04 504 -4.08 504 0 504 C-0.495 272.835 -0.495 272.835 -1 37 C-2.32 37.99 -3.64 38.98 -5 40 C-8.14749442 40.59573459 -11.30192995 40.46402999 -14.5 40.4375 C-15.35464844 40.45748047 -16.20929688 40.47746094 -17.08984375 40.49804688 C-23.30120866 40.49320182 -23.30120866 40.49320182 -26.5625 38.19140625 C-28.67881875 34.96517032 -28.53844119 32.76908836 -28 29 C-26.53125 26.8046875 -26.53125 26.8046875 -24 25 C-20.98647309 24.46154699 -18.05190071 24.53237043 -15 24.625 C-13.78957031 24.62693359 -13.78957031 24.62693359 -12.5546875 24.62890625 C-8.47709149 24.68946461 -5.55696191 24.81933545 -2 27 C-1.67 27.66 -1.34 28.32 -1 29 C-0.67 19.43 -0.34 9.86 0 0 Z " fill="#80E29D" transform="translate(407,0)"/>
<path d="M0 0 C11.55 0 23.1 0 35 0 C38.31075365 3.31075365 38.35285869 4.27505121 38.40266097 8.74166444 C38.39620916 9.53160404 38.38975736 10.32154364 38.38311005 11.1354208 C38.38806956 11.97849404 38.39302908 12.82156728 38.39813888 13.6901882 C38.41118337 16.54022626 38.40268244 19.38980258 38.39440918 22.23985291 C38.39929389 24.29374529 38.40548174 26.34763492 38.41286707 28.40151983 C38.42934289 34.06504403 38.42693318 39.72842972 38.4214921 45.39196956 C38.41883129 51.49227241 38.43333577 57.59253755 38.44558716 63.69282532 C38.46668338 75.65131088 38.47119842 87.60973604 38.46939927 99.56823342 C38.46802765 109.28400051 38.47183675 118.99975285 38.47932434 128.71551704 C38.48037466 130.11003071 38.48142228 131.50454439 38.4824672 132.89905806 C38.48298655 133.59125916 38.48350589 134.28346026 38.48404097 134.99663715 C38.48456112 135.69008551 38.48508126 136.38353387 38.48561716 137.09799582 C38.48614115 137.79258085 38.48666514 138.48716588 38.48720502 139.20279894 C38.50179406 158.74605157 38.51006824 178.28929877 38.50545502 197.83255672 C38.50528306 198.56972221 38.50511111 199.3068877 38.50493394 200.06639154 C38.50404502 203.80286876 38.5031002 207.53934596 38.50213593 211.27582317 C38.50184938 212.38899139 38.50184938 212.38899139 38.50155704 213.52464785 C38.50116995 215.02537968 38.50077963 216.52611152 38.50038607 218.02684335 C38.49441488 241.38276351 38.5098572 264.73858461 38.54199219 288.09448242 C38.57804288 314.31874889 38.59740542 340.54295254 38.59245348 366.76724535 C38.59198348 369.56171929 38.59157323 372.35619324 38.59120178 375.15066719 C38.5910994 375.83876694 38.59099701 376.52686668 38.59089152 377.23581794 C38.58969511 387.6376426 38.60168449 398.03939956 38.62034607 408.44120598 C38.64155096 420.2665435 38.64500396 432.09173372 38.62604648 443.91709011 C38.61685604 449.95502784 38.61584656 455.99268167 38.63640213 462.03059769 C38.65499173 467.55191216 38.65074443 473.07270786 38.62785631 478.59400184 C38.62364001 480.59733551 38.62797107 482.60070805 38.64145225 484.6040008 C38.65846908 487.31621756 38.64503298 490.02659324 38.62361908 492.73873806 C38.63589661 493.52633649 38.64817413 494.31393493 38.6608237 495.12539998 C38.62444448 497.31346744 38.62444448 497.31346744 38 501 C33 505 33 505 0 505 C0 338.35 0 171.7 0 0 Z " fill="#2B4D66" transform="translate(432,0)"/>
<path d="M0 0 C11.55 0 23.1 0 35 0 C35 166.65 35 333.3 35 505 C2 505 2 505 -3 501 C-3.49893145 498.0544587 -3.66953762 495.68439454 -3.62361908 492.73873806 C-3.63028709 491.89421138 -3.6369551 491.04968469 -3.64382517 490.17956629 C-3.66015598 487.33030244 -3.6406339 484.48239388 -3.62145996 481.63316345 C-3.62578599 479.57769315 -3.63229928 477.52222647 -3.64082003 475.46676928 C-3.6578759 469.80346064 -3.64358543 464.1405915 -3.62430525 458.47730577 C-3.60892526 452.37567607 -3.6222679 446.27410189 -3.63204956 440.17247009 C-3.6457608 428.90550834 -3.63684708 417.63872861 -3.61663339 406.3717919 C-3.59809374 395.96473908 -3.58965326 385.55773654 -3.59120178 375.15066719 C-3.59129346 374.46097683 -3.59138513 373.77128646 -3.59147959 373.06069639 C-3.59187273 370.2611956 -3.59232235 367.46169483 -3.59285098 364.66219406 C-3.5977245 338.38917255 -3.57504332 312.11624031 -3.53889475 285.84324655 C-3.50689677 262.48719472 -3.49485155 239.13121914 -3.50097656 215.77514648 C-3.50136341 214.27537205 -3.50174986 212.77559761 -3.50213593 211.27582317 C-3.50232728 210.53437266 -3.50251862 209.79292215 -3.50271577 209.02900345 C-3.50367007 205.29685455 -3.50458444 201.56470564 -3.50545502 197.83255672 C-3.50562881 197.09630466 -3.5058026 196.36005259 -3.50598167 195.60148986 C-3.51033397 176.10032048 -3.50032876 156.59915936 -3.48561716 137.09799582 C-3.48509702 136.40454746 -3.48457688 135.7110991 -3.48404097 134.99663715 C-3.48352163 134.30443605 -3.48300229 133.61223495 -3.4824672 132.89905806 C-3.48194946 132.2081035 -3.48143172 131.51714895 -3.48089829 130.80525637 C-3.4798502 129.41370621 -3.47878999 128.02215607 -3.47771757 126.63060593 C-3.47032852 116.91787255 -3.4682503 107.20515082 -3.46971158 97.49241498 C-3.47155493 84.97821007 -3.46320274 72.46408258 -3.43807012 59.94989531 C-3.42617675 53.91214817 -3.41910708 47.87449692 -3.42490768 41.83673859 C-3.43005423 36.31685039 -3.4214813 30.79716534 -3.40163308 25.27731199 C-3.39686714 23.27335935 -3.39722629 21.2693871 -3.40304345 19.26543724 C-3.4101546 16.55518553 -3.39905323 13.8456201 -3.38311005 11.1354208 C-3.38956185 10.3454812 -3.39601365 9.5555416 -3.40266097 8.74166444 C-3.35285869 4.27505121 -3.31075365 3.31075365 0 0 Z " fill="#355E7C" transform="translate(45,0)"/>
<path d="M0 0 C1.228396 -0.00281982 2.45679199 -0.00563965 3.72241211 -0.00854492 C5.09619155 -0.00660033 6.46997085 -0.00455214 7.84375 -0.00241089 C9.28068079 -0.00376489 10.71761123 -0.00554482 12.15454102 -0.00772095 C16.06765589 -0.01229541 19.98074451 -0.01050567 23.89385986 -0.00734186 C27.9800219 -0.00481833 32.06618163 -0.00715578 36.15234375 -0.00872803 C43.01562912 -0.01054974 49.87890375 -0.00814336 56.7421875 -0.00338745 C64.68847006 0.00205517 72.63472697 0.00029252 80.58100891 -0.00521386 C87.39118164 -0.00974493 94.20134663 -0.01039556 101.01152039 -0.00777519 C105.08434469 -0.00621238 109.15715693 -0.00601874 113.22998047 -0.00931168 C117.05810757 -0.01219031 120.88620145 -0.01021485 124.71432495 -0.00441742 C126.12328028 -0.00308978 127.53223838 -0.00348401 128.94119263 -0.00568008 C130.85662743 -0.0083914 132.77206832 -0.00439694 134.6875 0 C135.76193359 0.00037703 136.83636719 0.00075405 137.94335938 0.0011425 C140.34375 0.12698364 140.34375 0.12698364 141.34375 1.12698364 C141.44421803 3.82998663 141.47991452 6.5074671 141.47314453 9.21096802 C141.47577301 10.48161858 141.47577301 10.48161858 141.47845459 11.77793884 C141.48287409 14.59222431 141.47993477 17.40644748 141.4765625 20.22073364 C141.47723551 22.16747042 141.47820551 24.11420712 141.47946167 26.0609436 C141.48093878 30.14660439 141.47878368 34.23224336 141.47412109 38.31790161 C141.4684238 43.5674488 141.47170274 48.81694486 141.47769356 54.06649017 C141.48129883 58.08806751 141.48016074 62.10963263 141.47756577 66.13121033 C141.4768964 68.06739813 141.47772525 70.00358703 141.48004532 71.93977356 C141.48257129 74.64087889 141.47873205 77.34190023 141.47314453 80.04299927 C141.47516876 80.8513472 141.47719299 81.65969513 141.47927856 82.49253845 C141.45801248 88.01272117 141.45801248 88.01272117 140.34375 89.12698364 C138.46044453 89.22571645 136.57339162 89.25330551 134.6875 89.25396729 C133.459104 89.25678711 132.23070801 89.25960693 130.96508789 89.26251221 C129.59130845 89.26056761 128.21752915 89.25851943 126.84375 89.25637817 C125.40681921 89.25773218 123.96988877 89.2595121 122.53295898 89.26168823 C118.61984411 89.2662627 114.70675549 89.26447295 110.79364014 89.26130915 C106.7074781 89.25878561 102.62131837 89.26112306 98.53515625 89.26269531 C91.67187088 89.26451703 84.80859625 89.26211065 77.9453125 89.25735474 C69.99902994 89.25191211 62.05277303 89.25367477 54.10649109 89.25918114 C47.29631836 89.26371222 40.48615337 89.26436285 33.67597961 89.26174247 C29.60315531 89.26017967 25.53034307 89.25998603 21.45751953 89.26327896 C17.62939243 89.2661576 13.80129855 89.26418213 9.97317505 89.2583847 C8.56421972 89.25705706 7.15526162 89.25745129 5.74630737 89.25964737 C3.83087257 89.26235868 1.91543168 89.25836422 0 89.25396729 C-1.07443359 89.25359026 -2.14886719 89.25321323 -3.25585938 89.25282478 C-5.65625 89.12698364 -5.65625 89.12698364 -6.65625 88.12698364 C-6.75671803 85.42398065 -6.79241452 82.74650018 -6.78564453 80.04299927 C-6.78739685 79.1958989 -6.78914917 78.34879852 -6.79095459 77.47602844 C-6.79537409 74.66174298 -6.79243477 71.8475198 -6.7890625 69.03323364 C-6.78973551 67.08649687 -6.79070551 65.13976017 -6.79196167 63.19302368 C-6.79343878 59.1073629 -6.79128368 55.02172393 -6.78662109 50.93606567 C-6.7809238 45.68651849 -6.78420274 40.43702242 -6.79019356 35.18747711 C-6.79379883 31.16589978 -6.79266074 27.14433465 -6.79006577 23.12275696 C-6.7893964 21.18656915 -6.79022525 19.25038026 -6.79254532 17.31419373 C-6.79507129 14.6130884 -6.79123205 11.91206705 -6.78564453 9.21096802 C-6.78766876 8.40262009 -6.78969299 7.59427216 -6.79177856 6.76142883 C-6.76642139 0.17929608 -6.48106147 0.00227425 0 0 Z " fill="#365E7C" transform="translate(188.65625,156.87301635742188)"/>
<path d="M0 0 C1.228396 -0.00281982 2.45679199 -0.00563965 3.72241211 -0.00854492 C5.09619155 -0.00660033 6.46997085 -0.00455214 7.84375 -0.00241089 C9.28068079 -0.00376489 10.71761123 -0.00554482 12.15454102 -0.00772095 C16.06765589 -0.01229541 19.98074451 -0.01050567 23.89385986 -0.00734186 C27.9800219 -0.00481833 32.06618163 -0.00715578 36.15234375 -0.00872803 C43.01562912 -0.01054974 49.87890375 -0.00814336 56.7421875 -0.00338745 C64.68847006 0.00205517 72.63472697 0.00029252 80.58100891 -0.00521386 C87.39118164 -0.00974493 94.20134663 -0.01039556 101.01152039 -0.00777519 C105.08434469 -0.00621238 109.15715693 -0.00601874 113.22998047 -0.00931168 C117.05810757 -0.01219031 120.88620145 -0.01021485 124.71432495 -0.00441742 C126.12328028 -0.00308978 127.53223838 -0.00348401 128.94119263 -0.00568008 C130.85662743 -0.0083914 132.77206832 -0.00439694 134.6875 0 C135.76193359 0.00037703 136.83636719 0.00075405 137.94335938 0.0011425 C140.34375 0.12698364 140.34375 0.12698364 141.34375 1.12698364 C141.44421803 3.82998663 141.47991452 6.5074671 141.47314453 9.21096802 C141.47577301 10.48161858 141.47577301 10.48161858 141.47845459 11.77793884 C141.48287409 14.59222431 141.47993477 17.40644748 141.4765625 20.22073364 C141.47723551 22.16747042 141.47820551 24.11420712 141.47946167 26.0609436 C141.48093878 30.14660439 141.47878368 34.23224336 141.47412109 38.31790161 C141.4684238 43.5674488 141.47170274 48.81694486 141.47769356 54.06649017 C141.48129883 58.08806751 141.48016074 62.10963263 141.47756577 66.13121033 C141.4768964 68.06739813 141.47772525 70.00358703 141.48004532 71.93977356 C141.48257129 74.64087889 141.47873205 77.34190023 141.47314453 80.04299927 C141.47516876 80.8513472 141.47719299 81.65969513 141.47927856 82.49253845 C141.45801248 88.01272117 141.45801248 88.01272117 140.34375 89.12698364 C138.46044453 89.22571645 136.57339162 89.25330551 134.6875 89.25396729 C133.459104 89.25678711 132.23070801 89.25960693 130.96508789 89.26251221 C129.59130845 89.26056761 128.21752915 89.25851943 126.84375 89.25637817 C125.40681921 89.25773218 123.96988877 89.2595121 122.53295898 89.26168823 C118.61984411 89.2662627 114.70675549 89.26447295 110.79364014 89.26130915 C106.7074781 89.25878561 102.62131837 89.26112306 98.53515625 89.26269531 C91.67187088 89.26451703 84.80859625 89.26211065 77.9453125 89.25735474 C69.99902994 89.25191211 62.05277303 89.25367477 54.10649109 89.25918114 C47.29631836 89.26371222 40.48615337 89.26436285 33.67597961 89.26174247 C29.60315531 89.26017967 25.53034307 89.25998603 21.45751953 89.26327896 C17.62939243 89.2661576 13.80129855 89.26418213 9.97317505 89.2583847 C8.56421972 89.25705706 7.15526162 89.25745129 5.74630737 89.25964737 C3.83087257 89.26235868 1.91543168 89.25836422 0 89.25396729 C-1.07443359 89.25359026 -2.14886719 89.25321323 -3.25585938 89.25282478 C-5.65625 89.12698364 -5.65625 89.12698364 -6.65625 88.12698364 C-6.75671803 85.42398065 -6.79241452 82.74650018 -6.78564453 80.04299927 C-6.78739685 79.1958989 -6.78914917 78.34879852 -6.79095459 77.47602844 C-6.79537409 74.66174298 -6.79243477 71.8475198 -6.7890625 69.03323364 C-6.78973551 67.08649687 -6.79070551 65.13976017 -6.79196167 63.19302368 C-6.79343878 59.1073629 -6.79128368 55.02172393 -6.78662109 50.93606567 C-6.7809238 45.68651849 -6.78420274 40.43702242 -6.79019356 35.18747711 C-6.79379883 31.16589978 -6.79266074 27.14433465 -6.79006577 23.12275696 C-6.7893964 21.18656915 -6.79022525 19.25038026 -6.79254532 17.31419373 C-6.79507129 14.6130884 -6.79123205 11.91206705 -6.78564453 9.21096802 C-6.78766876 8.40262009 -6.78969299 7.59427216 -6.79177856 6.76142883 C-6.76642139 0.17929608 -6.48106147 0.00227425 0 0 Z " fill="#365E7C" transform="translate(188.65625,27.873016357421875)"/>
<path d="M0 0 C0.92548645 -0.00281982 1.8509729 -0.00563965 2.80450439 -0.00854492 C4.33962677 -0.00550858 4.33962677 -0.00550858 5.90576172 -0.00241089 C6.97719421 -0.00416321 8.04862671 -0.00591553 9.15252686 -0.00772095 C12.71351719 -0.01214189 16.27445833 -0.00920062 19.83544922 -0.00582886 C22.29785166 -0.00650183 24.76025404 -0.00747179 27.22265625 -0.00872803 C32.3911197 -0.01020533 37.5595659 -0.0080494 42.72802734 -0.00338745 C49.36985649 0.00230985 56.01164524 -0.00096898 62.6534729 -0.00695992 C67.74048164 -0.01056465 72.82748072 -0.00942734 77.91448975 -0.00683212 C80.36423752 -0.00616261 82.81398615 -0.00699211 85.26373291 -0.00931168 C88.68089132 -0.01183677 92.09798329 -0.00799962 95.51513672 -0.00241089 C96.53855164 -0.00443512 97.56196655 -0.00645935 98.61639404 -0.00854492 C100.00462372 -0.00431519 100.00462372 -0.00431519 101.42089844 0 C102.22985565 0.00037703 103.03881287 0.00075405 103.87228394 0.0011425 C105.71044922 0.12698364 105.71044922 0.12698364 106.71044922 1.12698364 C106.80815123 2.55411984 106.83676617 3.98605794 106.83743286 5.41653442 C106.8416626 6.8047641 106.8416626 6.8047641 106.84597778 8.22103882 C106.84294144 9.75616119 106.84294144 9.75616119 106.83984375 11.32229614 C106.84247223 12.92944489 106.84247223 12.92944489 106.84515381 14.56906128 C106.84957475 18.13005161 106.84663348 21.69099276 106.84326172 25.25198364 C106.84393469 27.71438608 106.84490465 30.17678846 106.84616089 32.63919067 C106.84763819 37.80765412 106.84548227 42.97610032 106.84082031 48.14456177 C106.83512301 54.78639092 106.83840185 61.42817966 106.84439278 68.07000732 C106.84799752 73.15701606 106.84686021 78.24401515 106.84426498 83.33102417 C106.84359547 85.78077194 106.84442497 88.23052057 106.84674454 90.68026733 C106.84926964 94.09742574 106.84543248 97.51451771 106.83984375 100.93167114 C106.84186798 101.95508606 106.84389221 102.97850098 106.84597778 104.03292847 C106.84315796 104.95841492 106.84033813 105.88390137 106.83743286 106.83743286 C106.83686732 108.05086868 106.83686732 108.05086868 106.83629036 109.28881836 C106.71044922 111.12698364 106.71044922 111.12698364 105.71044922 112.12698364 C104.28331302 112.22468566 102.85137492 112.25330059 101.42089844 112.25396729 C100.49541199 112.25678711 99.56992554 112.25960693 98.61639404 112.26251221 C97.08127167 112.25947586 97.08127167 112.25947586 95.51513672 112.25637817 C94.44370422 112.25813049 93.37227173 112.25988281 92.26837158 112.26168823 C88.70738125 112.26610918 85.14644011 112.2631679 81.58544922 112.25979614 C79.12304678 112.26046911 76.6606444 112.26143908 74.19824219 112.26269531 C69.02977874 112.26417261 63.86133254 112.26201669 58.69287109 112.25735474 C52.05104195 112.25165744 45.4092532 112.25493627 38.76742554 112.2609272 C33.6804168 112.26453194 28.59341771 112.26339463 23.50640869 112.26079941 C21.05666092 112.2601299 18.60691229 112.26095939 16.15716553 112.26327896 C12.74000712 112.26580406 9.32291515 112.2619669 5.90576172 112.25637817 C4.8823468 112.2584024 3.85893188 112.26042664 2.80450439 112.26251221 C1.41627472 112.25828247 1.41627472 112.25828247 0 112.25396729 C-0.80895721 112.25359026 -1.61791443 112.25321323 -2.4513855 112.25282478 C-4.28955078 112.12698364 -4.28955078 112.12698364 -5.28955078 111.12698364 C-5.38725279 109.69984744 -5.41586773 108.26790935 -5.41653442 106.83743286 C-5.41935425 105.91194641 -5.42217407 104.98645996 -5.42507935 104.03292847 C-5.422043 102.49780609 -5.422043 102.49780609 -5.41894531 100.93167114 C-5.42069763 99.86023865 -5.42244995 98.78880615 -5.42425537 97.68490601 C-5.42867631 94.12391567 -5.42573504 90.56297453 -5.42236328 87.00198364 C-5.42303625 84.5395812 -5.42400622 82.07717882 -5.42526245 79.61477661 C-5.42673975 74.44631317 -5.42458383 69.27786696 -5.41992188 64.10940552 C-5.41422458 57.46757637 -5.41750341 50.82578762 -5.42349434 44.18395996 C-5.42709908 39.09695122 -5.42596177 34.00995214 -5.42336655 28.92294312 C-5.42269704 26.47319535 -5.42352653 24.02344671 -5.4258461 21.57369995 C-5.4283712 18.15654154 -5.42453404 14.73944957 -5.41894531 11.32229614 C-5.42096954 10.29888123 -5.42299377 9.27546631 -5.42507935 8.22103882 C-5.42225952 7.29555237 -5.4194397 6.37006592 -5.41653442 5.41653442 C-5.4161574 4.60757721 -5.41578037 3.79862 -5.41539192 2.96514893 C-5.16918362 -0.63122301 -3.10258069 0.001446 0 0 Z " fill="#365F7D" transform="translate(187.28955078125,300.8730163574219)"/>
<path d="M0 0 C0.91293154 -0.00507454 1.82586309 -0.01014909 2.76645923 -0.0153774 C4.2807243 -0.01612404 4.2807243 -0.01612404 5.8255806 -0.01688576 C7.42662986 -0.02345914 7.42662986 -0.02345914 9.06002355 -0.03016531 C12.66052752 -0.04359124 16.261007 -0.04974067 19.8615303 -0.0558567 C22.4333393 -0.06375464 25.00514719 -0.07202339 27.57695389 -0.08063698 C35.31221004 -0.10517199 43.04747264 -0.11978976 50.78275573 -0.13269705 C52.96700163 -0.13640818 55.15124688 -0.14038148 57.33549213 -0.14444971 C70.89498068 -0.16968547 84.4544702 -0.19174188 98.01397705 -0.20417786 C101.15554432 -0.20710763 104.29711155 -0.21006928 107.43867874 -0.21308327 C108.21951495 -0.21382932 109.00035115 -0.21457537 109.80484906 -0.21534403 C122.45572952 -0.22799936 135.10646948 -0.26122409 147.75728425 -0.3028851 C160.74121998 -0.34529314 173.72508376 -0.36887158 186.70908856 -0.37409842 C194.0009321 -0.37751385 201.29255609 -0.3892842 208.58433151 -0.42220116 C215.4428898 -0.45311142 222.30105924 -0.45862485 229.1596756 -0.4468174 C231.67921118 -0.44659593 234.19876409 -0.45496098 236.71823883 -0.47247124 C240.15406188 -0.49505329 243.58848227 -0.48691727 247.02431107 -0.47098732 C248.02489823 -0.48486941 249.0254854 -0.49875149 250.05639338 -0.51305425 C254.56107014 -0.46147843 257.68276712 -0.3492466 261.25965118 2.56020737 C265.62891428 7.21400184 265.96654235 10.4755165 265.87422562 16.74638939 C265.86998077 17.83660393 265.86998077 17.83660393 265.86565018 18.948843 C265.85448834 21.26173689 265.82939163 23.57423827 265.80391312 25.88701439 C265.79387813 27.45862336 265.78475318 29.03023843 265.77656937 30.60185814 C265.75626671 34.44718175 265.717112 38.29166062 265.67891312 42.13701439 C256.76891312 42.13701439 247.85891312 42.13701439 238.67891312 42.13701439 C238.34891312 43.78701439 238.01891312 45.43701439 237.67891312 47.13701439 C234.46435242 49.28005485 232.44962896 49.60911913 228.62031937 49.53154564 C226.67891312 49.13701439 226.67891312 49.13701439 224.17891312 46.76201439 C222.67891312 44.13701439 222.67891312 44.13701439 222.67891312 42.13701439 C218.05891312 42.13701439 213.43891312 42.13701439 208.67891312 42.13701439 C208.34891312 43.78701439 208.01891312 45.43701439 207.67891312 47.13701439 C205.26404368 49.55188382 204.55183523 49.43320689 201.24141312 49.44951439 C200.06772171 49.47465111 200.06772171 49.47465111 198.87031937 49.50029564 C196.15965903 49.05093484 195.33170677 48.29524952 193.67891312 46.13701439 C193.34891312 45.14701439 193.01891312 44.15701439 192.67891312 43.13701439 C186.24391312 42.64201439 186.24391312 42.64201439 179.67891312 42.13701439 C179.01891312 43.78701439 178.35891312 45.43701439 177.67891312 47.13701439 C175.67891312 49.13701439 175.67891312 49.13701439 171.80391312 49.51201439 C168.65163944 49.4375061 167.83502636 49.25019649 165.17891312 47.32451439 C163.67891312 45.13701439 163.67891312 45.13701439 163.67891312 42.13701439 C159.05891312 42.13701439 154.43891312 42.13701439 149.67891312 42.13701439 C149.01891312 43.78701439 148.35891312 45.43701439 147.67891312 47.13701439 C145.67891312 49.13701439 145.67891312 49.13701439 141.80391312 49.51201439 C138.65163944 49.4375061 137.83502636 49.25019649 135.17891312 47.32451439 C133.67891312 45.13701439 133.67891312 45.13701439 133.67891312 42.13701439 C129.05891312 42.13701439 124.43891312 42.13701439 119.67891312 42.13701439 C119.34891312 43.78701439 119.01891312 45.43701439 118.67891312 47.13701439 C115.46435242 49.28005485 113.44962896 49.60911913 109.62031937 49.53154564 C107.67891312 49.13701439 107.67891312 49.13701439 105.17891312 46.76201439 C103.67891312 44.13701439 103.67891312 44.13701439 103.67891312 42.13701439 C99.05891312 42.13701439 94.43891312 42.13701439 89.67891312 42.13701439 C89.34891312 43.78701439 89.01891312 45.43701439 88.67891312 47.13701439 C85.46435242 49.28005485 83.44962896 49.60911913 79.62031937 49.53154564 C77.67891312 49.13701439 77.67891312 49.13701439 75.17891312 46.76201439 C73.67891312 44.13701439 73.67891312 44.13701439 73.67891312 42.13701439 C71.57407756 42.17004319 69.46978882 42.23945985 67.36641312 42.32451439 C66.1946553 42.35931908 65.02289749 42.39412376 63.81563187 42.42998314 C60.4946081 42.82115608 60.4946081 42.82115608 58.82344437 45.62529564 C58.44574905 46.45416283 58.06805374 47.28303001 57.67891312 48.13701439 C56.09968906 49.71623845 54.48447438 49.34467339 52.30391312 49.38701439 C51.51242874 49.41279564 50.72094437 49.43857689 49.90547562 49.46513939 C47.67891312 49.13701439 47.67891312 49.13701439 45.88985062 47.87138939 C44.67891312 46.13701439 44.67891312 46.13701439 44.67891312 42.13701439 C40.05891312 42.13701439 35.43891312 42.13701439 30.67891312 42.13701439 C30.01891312 43.78701439 29.35891312 45.43701439 28.67891312 47.13701439 C26.67891312 49.13701439 26.67891312 49.13701439 22.80391312 49.51201439 C19.65163944 49.4375061 18.83502636 49.25019649 16.17891312 47.32451439 C14.67891312 45.13701439 14.67891312 45.13701439 14.67891312 42.13701439 C6.09891312 42.13701439 -2.48108688 42.13701439 -11.32108688 42.13701439 C-11.43621149 37.26084789 -11.53563111 32.38943646 -11.59574509 27.51299095 C-11.62081288 25.8562525 -11.65487679 24.1996238 -11.69828415 22.54326439 C-11.75928332 20.15496755 -11.78737215 17.76813846 -11.80936813 15.37920189 C-11.83517456 14.64458733 -11.86098099 13.90997276 -11.88756943 13.15309715 C-11.88969865 9.20494647 -11.36674204 6.71212151 -8.91556931 3.68437767 C-5.67501305 0.50267408 -4.37520676 0.01287698 0 0 Z " fill="#F5E165" transform="translate(129.32108688354492,462.8629856109619)"/>
<path d="M0 0 C4.29 0 8.58 0 13 0 C13 166.65 13 333.3 13 505 C8.71 505 4.42 505 0 505 C0 338.35 0 171.7 0 0 Z " fill="#365E7D" transform="translate(432,0)"/>
<path d="M0 0 C0.93767212 -0.00315216 1.87534424 -0.00630432 2.84143066 -0.009552 C3.86119995 -0.00752777 4.88096924 -0.00550354 5.93164062 -0.00341797 C7.49078186 -0.00485306 7.49078186 -0.00485306 9.0814209 -0.00631714 C11.28393616 -0.0069991 13.48645342 -0.00514374 15.68896484 -0.00097656 C19.07328782 0.00437146 22.45747806 -0.00092105 25.84179688 -0.00732422 C27.97591175 -0.00666344 30.11002655 -0.00538228 32.24414062 -0.00341797 C33.26390991 -0.0054422 34.2836792 -0.00746643 35.33435059 -0.009552 C36.74085876 -0.00482376 36.74085876 -0.00482376 38.17578125 0 C39.42035095 0.00119339 39.42035095 0.00119339 40.69006348 0.00241089 C42.58789062 0.12939453 42.58789062 0.12939453 43.58789062 1.12939453 C43.68837586 3.86290201 43.72405324 6.57117345 43.71728516 9.30517578 C43.71903748 10.16202972 43.72078979 11.01888367 43.72259521 11.90170288 C43.7270148 14.74845373 43.72407537 17.595143 43.72070312 20.44189453 C43.72137613 22.41105155 43.72234613 24.3802085 43.72360229 26.34936523 C43.72507941 30.48210438 43.72292427 34.61482195 43.71826172 38.74755859 C43.71256443 44.05763974 43.71584336 49.36767035 43.72183418 54.67774963 C43.72543942 58.74565007 43.72430138 62.81353842 43.72170639 66.88143921 C43.72103702 68.83995571 43.7218659 70.79847329 43.72418594 72.75698853 C43.72671186 75.48922653 43.72287274 78.2213815 43.71728516 80.95361328 C43.71930939 81.77131195 43.72133362 82.58901062 43.72341919 83.43148804 C43.70215308 89.01513207 43.70215308 89.01513207 42.58789062 90.12939453 C41.1198377 90.22762197 39.64711602 90.25737823 38.17578125 90.25878906 C37.23810913 90.26194122 36.30043701 90.26509338 35.33435059 90.26834106 C34.3145813 90.26631683 33.29481201 90.2642926 32.24414062 90.26220703 C30.68499939 90.26364212 30.68499939 90.26364212 29.09436035 90.2651062 C26.89184509 90.26578816 24.68932783 90.2639328 22.48681641 90.25976562 C19.10249343 90.25441761 15.71830319 90.25971012 12.33398438 90.26611328 C10.1998695 90.2654525 8.0657547 90.26417135 5.93164062 90.26220703 C4.91187134 90.26423126 3.89210205 90.26625549 2.84143066 90.26834106 C1.43492249 90.26361282 1.43492249 90.26361282 0 90.25878906 C-0.82971313 90.25799347 -1.65942627 90.25719788 -2.51428223 90.25637817 C-4.41210938 90.12939453 -4.41210938 90.12939453 -5.41210938 89.12939453 C-5.51259461 86.39588705 -5.54827199 83.68761561 -5.54150391 80.95361328 C-5.54325623 80.09675934 -5.54500854 79.2399054 -5.54681396 78.35708618 C-5.55123355 75.51033534 -5.54829412 72.66364607 -5.54492188 69.81689453 C-5.54559488 67.84773751 -5.54656488 65.87858057 -5.54782104 63.90942383 C-5.54929816 59.77668468 -5.54714302 55.64396711 -5.54248047 51.51123047 C-5.53678318 46.20114932 -5.54006211 40.89111872 -5.54605293 35.58103943 C-5.54965817 31.513139 -5.54852013 27.44525064 -5.54592514 23.37734985 C-5.54525577 21.41883335 -5.54608465 19.46031578 -5.54840469 17.50180054 C-5.55093061 14.76956253 -5.54709149 12.03740756 -5.54150391 9.30517578 C-5.54352814 8.48747711 -5.54555237 7.66977844 -5.54763794 6.82730103 C-5.52165535 0.00529459 -5.52165535 0.00529459 0 0 Z " fill="#365F7D" transform="translate(361.412109375,200.87060546875)"/>
<path d="M0 0 C0.80972763 0.00142502 1.61945526 0.00285004 2.45372009 0.00431824 C3.83008385 -0.00029671 3.83008385 -0.00029671 5.23425293 -0.00500488 C6.22698715 0.00218063 7.21972137 0.00936615 8.24253845 0.01676941 C9.7662632 0.01745674 9.7662632 0.01745674 11.32077026 0.01815796 C13.47024197 0.0211822 15.61971145 0.0290736 17.76914978 0.04142761 C21.07220662 0.05968192 24.37498332 0.06193736 27.67808533 0.06169128 C29.76207214 0.06660637 31.84605705 0.07243465 33.93003845 0.07926941 C35.42217613 0.08093864 35.42217613 0.08093864 36.94445801 0.0826416 C37.85888168 0.08902145 38.77330536 0.09540131 39.71543884 0.10197449 C40.9288369 0.10769218 40.9288369 0.10769218 42.16674805 0.11352539 C44.0198822 0.24723816 44.0198822 0.24723816 45.0198822 1.24723816 C45.12036744 3.98074564 45.15604482 6.68901708 45.14927673 9.42301941 C45.15102905 10.27987335 45.15278137 11.13672729 45.15458679 12.01954651 C45.15900637 14.86629736 45.15606695 17.71298663 45.1526947 20.55973816 C45.15336771 22.52889518 45.15433771 24.49805212 45.15559387 26.46720886 C45.15707099 30.59994801 45.15491585 34.73266558 45.1502533 38.86540222 C45.144556 44.17548337 45.14783493 49.48551397 45.15382576 54.79559326 C45.157431 58.86349369 45.15629296 62.93138205 45.15369797 66.99928284 C45.1530286 68.95779934 45.15385747 70.91631691 45.15617752 72.87483215 C45.15870344 75.60707016 45.15486432 78.33922513 45.14927673 81.07145691 C45.15130096 81.88915558 45.1533252 82.70685425 45.15541077 83.54933167 C45.13414466 89.1329757 45.13414466 89.1329757 44.0198822 90.24723816 C42.55182928 90.3454656 41.0791076 90.37522186 39.60777283 90.37663269 C38.67010071 90.37978485 37.73242859 90.38293701 36.76634216 90.38618469 C35.74657288 90.38416046 34.72680359 90.38213623 33.6761322 90.38005066 C32.11699097 90.38148575 32.11699097 90.38148575 30.52635193 90.38294983 C28.32383667 90.38363179 26.12131941 90.38177643 23.91880798 90.37760925 C20.53448501 90.37226124 17.15029476 90.37755374 13.76597595 90.38395691 C11.63186107 90.38329613 9.49774628 90.38201497 7.3636322 90.38005066 C6.34386292 90.38207489 5.32409363 90.38409912 4.27342224 90.38618469 C2.86691406 90.38145645 2.86691406 90.38145645 1.43199158 90.37663269 C0.60227844 90.3758371 -0.22743469 90.3750415 -1.08229065 90.3742218 C-2.9801178 90.24723816 -2.9801178 90.24723816 -3.9801178 89.24723816 C-4.08590771 86.54961354 -4.12689719 83.87745695 -4.12538147 81.17912292 C-4.12874008 80.33362885 -4.13209869 79.48813477 -4.13555908 78.61701965 C-4.14509862 75.80754651 -4.14701369 72.99813277 -4.14808655 70.18864441 C-4.15129702 68.24430313 -4.15466093 66.2999621 -4.15817261 64.35562134 C-4.16417138 60.27415914 -4.16601174 56.19271813 -4.16542053 52.11125183 C-4.16531886 46.87073308 -4.17897282 41.63034967 -4.19619274 36.38986301 C-4.20728881 32.37253185 -4.20934048 28.35523365 -4.20881081 24.33788872 C-4.20999448 22.40531383 -4.21443776 20.47273819 -4.22214317 18.5401783 C-4.23189505 15.84160395 -4.22908417 13.14332663 -4.22303772 10.44474792 C-4.22865723 9.63999527 -4.23427673 8.83524261 -4.24006653 8.00610352 C-4.19727126 0.52407267 -4.19727126 0.52407267 0 0 Z " fill="#365F7D" transform="translate(109.98011779785156,200.7527618408203)"/>
<path d="M0 0 C0.78894653 0.00142502 1.57789307 0.00285004 2.39074707 0.00431824 C3.28507446 0.00124161 4.17940186 -0.00183502 5.10083008 -0.00500488 C6.06855347 0.00218063 7.03627686 0.00936615 8.0333252 0.01676941 C9.02457397 0.01722763 10.01582275 0.01768585 11.03710938 0.01815796 C13.13530675 0.02118234 15.23350185 0.02907415 17.33166504 0.04142761 C20.55130937 0.05966302 23.77066592 0.06193748 26.99035645 0.06169128 C29.02551519 0.06660717 31.06067198 0.0724358 33.0958252 0.07926941 C34.54741028 0.08093864 34.54741028 0.08093864 36.02832031 0.0826416 C36.92264771 0.08902145 37.8169751 0.09540131 38.73840332 0.10197449 C39.92182312 0.10769218 39.92182312 0.10769218 41.12915039 0.11352539 C43.0645752 0.24723816 43.0645752 0.24723816 45.0645752 1.24723816 C45.08769761 12.70373832 45.10548976 24.16023297 45.11638737 35.61675167 C45.12161642 40.93589029 45.12871446 46.255013 45.14001465 51.57414246 C45.15084274 56.70287801 45.15685186 61.83159822 45.15945244 66.96034431 C45.16130683 68.9216543 45.1649277 70.8829634 45.17030525 72.84426689 C45.17751466 75.58139263 45.17856618 78.31845413 45.17810059 81.05558777 C45.18169586 81.87485748 45.18529114 82.6941272 45.18899536 83.53822327 C45.17862736 89.133186 45.17862736 89.133186 44.0645752 90.24723816 C42.59652227 90.3454656 41.12380059 90.37522186 39.65246582 90.37663269 C38.7147937 90.37978485 37.77712158 90.38293701 36.81103516 90.38618469 C35.79126587 90.38416046 34.77149658 90.38213623 33.7208252 90.38005066 C32.16168396 90.38148575 32.16168396 90.38148575 30.57104492 90.38294983 C28.36852966 90.38363179 26.1660124 90.38177643 23.96350098 90.37760925 C20.579178 90.37226124 17.19498776 90.37755374 13.81066895 90.38395691 C11.67655407 90.38329613 9.54243927 90.38201497 7.4083252 90.38005066 C6.38855591 90.38207489 5.36878662 90.38409912 4.31811523 90.38618469 C2.91160706 90.38145645 2.91160706 90.38145645 1.47668457 90.37663269 C0.64697144 90.3758371 -0.1827417 90.3750415 -1.03759766 90.3742218 C-2.9354248 90.24723816 -2.9354248 90.24723816 -3.9354248 89.24723816 C-4.04121472 86.54961354 -4.0822042 83.87745695 -4.08068848 81.17912292 C-4.08404709 80.33362885 -4.0874057 79.48813477 -4.09086609 78.61701965 C-4.10040563 75.80754651 -4.10232069 72.99813277 -4.10339355 70.18864441 C-4.10660403 68.24430313 -4.10996793 66.2999621 -4.11347961 64.35562134 C-4.11947839 60.27415914 -4.12131875 56.19271813 -4.12072754 52.11125183 C-4.12062587 46.87073308 -4.13427983 41.63034967 -4.15149975 36.38986301 C-4.16259582 32.37253185 -4.16464749 28.35523365 -4.16411781 24.33788872 C-4.16530148 22.40531383 -4.16974477 20.47273819 -4.17745018 18.5401783 C-4.18720205 15.84160395 -4.18439118 13.14332663 -4.17834473 10.44474792 C-4.18396423 9.63999527 -4.18958374 8.83524261 -4.19537354 8.00610352 C-4.15261486 0.53047003 -4.15261486 0.53047003 0 0 Z " fill="#365F7D" transform="translate(109.9354248046875,71.75276184082031)"/>
<path d="M0 0 C0.89432739 -0.00630432 1.78865479 -0.01260864 2.71008301 -0.019104 C4.16166809 -0.01303131 4.16166809 -0.01303131 5.64257812 -0.00683594 C6.6338269 -0.00874939 7.62507568 -0.01066284 8.6463623 -0.01263428 C10.7445501 -0.01399679 12.84274631 -0.01029576 14.94091797 -0.00195312 C18.16067358 0.00874535 21.37987121 -0.0018463 24.59960938 -0.01464844 C26.63476686 -0.01332685 28.669924 -0.01076449 30.70507812 -0.00683594 C31.67280151 -0.0108844 32.6405249 -0.01493286 33.63757324 -0.019104 C34.53190063 -0.01279968 35.42622803 -0.00649536 36.34765625 0 C37.13660278 0.00159119 37.92554932 0.00318237 38.73840332 0.00482178 C40.67382812 0.25878906 40.67382812 0.25878906 42.67382812 2.25878906 C42.86717697 5.02456175 42.93606617 7.68980799 42.91674805 10.45629883 C42.91864639 11.30354523 42.92054474 12.15079163 42.92250061 13.02371216 C42.92621446 15.8326331 42.91549638 18.64129723 42.90429688 21.45019531 C42.9031054 23.39550242 42.90265184 25.3408101 42.90290833 27.28611755 C42.90134246 31.36583042 42.89304429 35.44545566 42.87963867 39.52514648 C42.86263743 44.76682423 42.85882459 50.00840568 42.85958385 55.25010777 C42.85931256 59.26739937 42.85383805 63.28466972 42.84658241 67.30195427 C42.84339002 69.23534929 42.84142701 71.16874673 42.84068871 73.10214424 C42.8385318 75.79836293 42.82980208 78.49447736 42.8190918 81.19067383 C42.81954498 81.99745071 42.81999817 82.8042276 42.82046509 83.63545227 C42.78830259 89.1443146 42.78830259 89.1443146 41.67382812 90.25878906 C40.2057752 90.35701651 38.73305352 90.38677276 37.26171875 90.38818359 C36.32404663 90.39133575 35.38637451 90.39448792 34.42028809 90.3977356 C33.4005188 90.39571136 32.38074951 90.39368713 31.33007812 90.39160156 C29.77093689 90.39303665 29.77093689 90.39303665 28.18029785 90.39450073 C25.97778259 90.39518269 23.77526533 90.39332733 21.57275391 90.38916016 C18.18843093 90.38381214 14.80424069 90.38910465 11.41992188 90.39550781 C9.285807 90.39484703 7.1516922 90.39356588 5.01757812 90.39160156 C3.99780884 90.39362579 2.97803955 90.39565002 1.92736816 90.3977356 C0.52085999 90.39300735 0.52085999 90.39300735 -0.9140625 90.38818359 C-1.74377563 90.387388 -2.57348877 90.38659241 -3.42834473 90.38577271 C-5.32617188 90.25878906 -5.32617188 90.25878906 -6.32617188 89.25878906 C-6.43196179 86.56116445 -6.47295127 83.88900786 -6.47143555 81.19067383 C-6.47479416 80.34517975 -6.47815277 79.49968567 -6.48161316 78.62857056 C-6.4911527 75.81909741 -6.49306776 73.00968367 -6.49414062 70.20019531 C-6.4973511 68.25585403 -6.500715 66.311513 -6.50422668 64.36717224 C-6.51022546 60.28571004 -6.51206582 56.20426904 -6.51147461 52.12280273 C-6.51137294 46.88228398 -6.5250269 41.64190057 -6.54224682 36.40141392 C-6.55334289 32.38408275 -6.55539456 28.36678455 -6.55486488 24.34943962 C-6.55604856 22.41686473 -6.56049184 20.48428909 -6.56819725 18.5517292 C-6.57794912 15.85315486 -6.57513825 13.15487753 -6.5690918 10.45629883 C-6.5747113 9.65154617 -6.58033081 8.84679352 -6.58612061 8.01765442 C-6.55312015 2.24808195 -6.00606855 0.01211334 0 0 Z " fill="#365F7D" transform="translate(362.326171875,71.7412109375)"/>
<path d="M0 0 C7.59 0 15.18 0 23 0 C24.56904981 1.56904981 24.12596746 3.10919262 24.12698364 5.28955078 C24.12980347 6.21503723 24.13262329 7.14052368 24.13552856 8.09405518 C24.13350433 9.11747009 24.1314801 10.14088501 24.12939453 11.1953125 C24.13114685 12.266745 24.13289917 13.33817749 24.13470459 14.44207764 C24.13912553 18.00306797 24.13618426 21.56400911 24.1328125 25.125 C24.13348547 27.58740244 24.13445544 30.04980482 24.13571167 32.51220703 C24.13718897 37.68067048 24.13503305 42.84911668 24.13037109 48.01757812 C24.1246738 54.65940727 24.12795263 61.30119602 24.13394356 67.94302368 C24.1375483 73.03003242 24.13641099 78.1170315 24.13381577 83.20404053 C24.13314625 85.6537883 24.13397575 88.10353693 24.13629532 90.55328369 C24.13882042 93.9704421 24.13498326 97.38753407 24.12939453 100.8046875 C24.13141876 101.82810242 24.13344299 102.85151733 24.13552856 103.90594482 C24.13129883 105.2941745 24.13129883 105.2941745 24.12698364 106.71044922 C24.12660662 107.51940643 24.12622959 108.32836365 24.12584114 109.16183472 C24 111 24 111 23 112 C15.41 112 7.82 112 0 112 C0 75.04 0 38.08 0 0 Z " fill="#2B4D66" transform="translate(270,301)"/>
<path d="M0 0 C9.57 0 19.14 0 29 0 C29 29.37 29 58.74 29 89 C19.43 89 9.86 89 0 89 C-1.7974182 87.2025818 -1.12630946 84.75862038 -1.13552856 82.36555481 C-1.13350433 81.55720688 -1.1314801 80.74885895 -1.12939453 79.91601562 C-1.13114685 79.06891525 -1.13289917 78.22181488 -1.13470459 77.3490448 C-1.13912409 74.53475934 -1.13618477 71.72053616 -1.1328125 68.90625 C-1.13348551 66.95951322 -1.13445551 65.01277653 -1.13571167 63.06604004 C-1.13718878 58.98037925 -1.13503368 54.89474029 -1.13037109 50.80908203 C-1.1246738 45.55953484 -1.12795274 40.31003878 -1.13394356 35.06049347 C-1.13754883 31.03891613 -1.13641074 27.01735101 -1.13381577 22.99577332 C-1.1331464 21.05958551 -1.13397525 19.12339661 -1.13629532 17.18721008 C-1.13882129 14.48610476 -1.13498205 11.78508341 -1.12939453 9.08398438 C-1.13141876 8.27563644 -1.13344299 7.46728851 -1.13552856 6.63444519 C-1.11426248 1.11426248 -1.11426248 1.11426248 0 0 Z " fill="#365F7D" transform="translate(183,157)"/>
<path d="M0 0 C9.57 0 19.14 0 29 0 C29 29.37 29 58.74 29 89 C19.43 89 9.86 89 0 89 C-1.7974182 87.2025818 -1.12630946 84.75862038 -1.13552856 82.36555481 C-1.13350433 81.55720688 -1.1314801 80.74885895 -1.12939453 79.91601562 C-1.13114685 79.06891525 -1.13289917 78.22181488 -1.13470459 77.3490448 C-1.13912409 74.53475934 -1.13618477 71.72053616 -1.1328125 68.90625 C-1.13348551 66.95951322 -1.13445551 65.01277653 -1.13571167 63.06604004 C-1.13718878 58.98037925 -1.13503368 54.89474029 -1.13037109 50.80908203 C-1.1246738 45.55953484 -1.12795274 40.31003878 -1.13394356 35.06049347 C-1.13754883 31.03891613 -1.13641074 27.01735101 -1.13381577 22.99577332 C-1.1331464 21.05958551 -1.13397525 19.12339661 -1.13629532 17.18721008 C-1.13882129 14.48610476 -1.13498205 11.78508341 -1.12939453 9.08398438 C-1.13141876 8.27563644 -1.13344299 7.46728851 -1.13552856 6.63444519 C-1.11426248 1.11426248 -1.11426248 1.11426248 0 0 Z " fill="#365F7D" transform="translate(183,28)"/>
<path d="M0 0 C17.42950592 -0.04010881 17.42950592 -0.04010881 24.83398438 -0.04882812 C29.89511152 -0.05481611 34.95622064 -0.06191521 40.01733398 -0.07543945 C44.09568543 -0.08626991 48.17401757 -0.09227717 52.25238228 -0.09487724 C53.81177639 -0.09673121 55.3711694 -0.10035127 56.93055534 -0.10573006 C59.10729162 -0.11294262 61.28394714 -0.11399085 63.46069336 -0.11352539 C65.32267616 -0.11685631 65.32267616 -0.11685631 67.22227478 -0.12025452 C70 0 70 0 71 1 C71.10082764 3.43660446 71.13972603 5.84424701 71.1328125 8.28125 C71.13376923 9.00993286 71.13472595 9.73861572 71.13571167 10.48937988 C71.13639335 12.0327971 71.13453988 13.57621717 71.13037109 15.11962891 C71.12502262 17.489974 71.13031642 19.86012959 71.13671875 22.23046875 C71.13605797 23.72656292 71.1347768 25.22265697 71.1328125 26.71875 C71.13483673 27.43228638 71.13686096 28.14582275 71.13894653 28.88098145 C71.11495191 33.88504809 71.11495191 33.88504809 70 35 C67.82194281 35.09429342 65.6407872 35.11742538 63.46069336 35.11352539 C62.77779739 35.11367142 62.09490143 35.11381744 61.39131165 35.1139679 C59.12412386 35.11326876 56.85701726 35.1054764 54.58984375 35.09765625 C53.02185613 35.09579207 51.45386793 35.09436817 49.88587952 35.09336853 C45.75123497 35.08954334 41.61662534 35.07971306 37.48199463 35.06866455 C32.52524283 35.05665582 27.56847939 35.05204819 22.61171722 35.04621124 C15.07445384 35.03650129 7.53726712 35.01734477 0 35 C0 23.45 0 11.9 0 0 Z " fill="#F5E266" transform="translate(334,378)"/>
<path d="M0 0 C17.42950592 -0.04010881 17.42950592 -0.04010881 24.83398438 -0.04882812 C29.89511152 -0.05481611 34.95622064 -0.06191521 40.01733398 -0.07543945 C44.09568543 -0.08626991 48.17401757 -0.09227717 52.25238228 -0.09487724 C53.81177639 -0.09673121 55.3711694 -0.10035127 56.93055534 -0.10573006 C59.10729162 -0.11294262 61.28394714 -0.11399085 63.46069336 -0.11352539 C65.32267616 -0.11685631 65.32267616 -0.11685631 67.22227478 -0.12025452 C70 0 70 0 71 1 C71.10082764 3.43660446 71.13972603 5.84424701 71.1328125 8.28125 C71.13376923 9.00993286 71.13472595 9.73861572 71.13571167 10.48937988 C71.13639335 12.0327971 71.13453988 13.57621717 71.13037109 15.11962891 C71.12502262 17.489974 71.13031642 19.86012959 71.13671875 22.23046875 C71.13605797 23.72656292 71.1347768 25.22265697 71.1328125 26.71875 C71.13483673 27.43228638 71.13686096 28.14582275 71.13894653 28.88098145 C71.11495191 33.88504809 71.11495191 33.88504809 70 35 C67.82194281 35.09429342 65.6407872 35.11742538 63.46069336 35.11352539 C62.77779739 35.11367142 62.09490143 35.11381744 61.39131165 35.1139679 C59.12412386 35.11326876 56.85701726 35.1054764 54.58984375 35.09765625 C53.02185613 35.09579207 51.45386793 35.09436817 49.88587952 35.09336853 C45.75123497 35.08954334 41.61662534 35.07971306 37.48199463 35.06866455 C32.52524283 35.05665582 27.56847939 35.05204819 22.61171722 35.04621124 C15.07445384 35.03650129 7.53726712 35.01734477 0 35 C0 23.45 0 11.9 0 0 Z " fill="#F5E266" transform="translate(334,320)"/>
<path d="M0 0 C6.27 0 12.54 0 19 0 C19 29.37 19 58.74 19 89 C12.73 89 6.46 89 0 89 C0 59.63 0 30.26 0 0 Z " fill="#2B4D66" transform="translate(261,157)"/>
<path d="M0 0 C6.27 0 12.54 0 19 0 C19 29.37 19 58.74 19 89 C12.73 89 6.46 89 0 89 C0 59.63 0 30.26 0 0 Z " fill="#2B4D66" transform="translate(212,157)"/>
<path d="M0 0 C6.27 0 12.54 0 19 0 C19 29.37 19 58.74 19 89 C12.73 89 6.46 89 0 89 C0 59.63 0 30.26 0 0 Z " fill="#2B4D66" transform="translate(261,28)"/>
<path d="M0 0 C6.27 0 12.54 0 19 0 C19 29.37 19 58.74 19 89 C12.73 89 6.46 89 0 89 C0 59.63 0 30.26 0 0 Z " fill="#2B4D66" transform="translate(212,28)"/>
<path d="M0 0 C6.27 0 12.54 0 19 0 C19.02255012 11.45650367 19.04091456 22.91299271 19.05181217 34.36951351 C19.05704122 39.68865213 19.06413927 45.00777484 19.07543945 50.3269043 C19.08626755 55.45563985 19.09227667 60.58436006 19.09487724 65.71310616 C19.09673163 67.67441614 19.10035251 69.63572524 19.10573006 71.59702873 C19.11293946 74.33415447 19.11399099 77.07121597 19.11352539 79.80834961 C19.11712067 80.62761932 19.12071594 81.44688904 19.12442017 82.29098511 C19.11405216 87.88594784 19.11405216 87.88594784 18 89 C12.06 89 6.12 89 0 89 C0 59.63 0 30.26 0 0 Z " fill="#2B4D66" transform="translate(386,202)"/>
<path d="M0 0 C6.27 0 12.54 0 19 0 C19.02255012 11.45650367 19.04091456 22.91299271 19.05181217 34.36951351 C19.05704122 39.68865213 19.06413927 45.00777484 19.07543945 50.3269043 C19.08626755 55.45563985 19.09227667 60.58436006 19.09487724 65.71310616 C19.09673163 67.67441614 19.10035251 69.63572524 19.10573006 71.59702873 C19.11293946 74.33415447 19.11399099 77.07121597 19.11352539 79.80834961 C19.11712067 80.62761932 19.12071594 81.44688904 19.12442017 82.29098511 C19.11405216 87.88594784 19.11405216 87.88594784 18 89 C12.06 89 6.12 89 0 89 C0 59.63 0 30.26 0 0 Z " fill="#2B4D66" transform="translate(136,202)"/>
<path d="M0 0 C6.27 0 12.54 0 19 0 C19.02255012 11.45650367 19.04091456 22.91299271 19.05181217 34.36951351 C19.05704122 39.68865213 19.06413927 45.00777484 19.07543945 50.3269043 C19.08626755 55.45563985 19.09227667 60.58436006 19.09487724 65.71310616 C19.09673163 67.67441614 19.10035251 69.63572524 19.10573006 71.59702873 C19.11293946 74.33415447 19.11399099 77.07121597 19.11352539 79.80834961 C19.11712067 80.62761932 19.12071594 81.44688904 19.12442017 82.29098511 C19.11405216 87.88594784 19.11405216 87.88594784 18 89 C12.06 89 6.12 89 0 89 C0 59.63 0 30.26 0 0 Z " fill="#2B4D66" transform="translate(136,73)"/>
<path d="M0 0 C5.94 0 11.88 0 18 0 C19.7974182 1.7974182 19.12630946 4.24137962 19.13552856 6.63444519 C19.13350433 7.44279312 19.1314801 8.25114105 19.12939453 9.08398438 C19.13114685 9.93108475 19.13289917 10.77818512 19.13470459 11.6509552 C19.13912409 14.46524066 19.13618477 17.27946384 19.1328125 20.09375 C19.13348551 22.04048678 19.13445551 23.98722347 19.13571167 25.93395996 C19.13718878 30.01962075 19.13503368 34.10525971 19.13037109 38.19091797 C19.1246738 43.44046516 19.12795274 48.68996122 19.13394356 53.93950653 C19.13754883 57.96108387 19.13641074 61.98264899 19.13381577 66.00422668 C19.1331464 67.94041449 19.13397525 69.87660339 19.13629532 71.81278992 C19.13882129 74.51389524 19.13498205 77.21491659 19.12939453 79.91601562 C19.13141876 80.72436356 19.13344299 81.53271149 19.13552856 82.36555481 C19.11426248 87.88573752 19.11426248 87.88573752 18 89 C12.06 89 6.12 89 0 89 C0 59.63 0 30.26 0 0 Z " fill="#2B4D66" transform="translate(311,157)"/>
<path d="M0 0 C5.94 0 11.88 0 18 0 C19.7974182 1.7974182 19.12630946 4.24137962 19.13552856 6.63444519 C19.13350433 7.44279312 19.1314801 8.25114105 19.12939453 9.08398438 C19.13114685 9.93108475 19.13289917 10.77818512 19.13470459 11.6509552 C19.13912409 14.46524066 19.13618477 17.27946384 19.1328125 20.09375 C19.13348551 22.04048678 19.13445551 23.98722347 19.13571167 25.93395996 C19.13718878 30.01962075 19.13503368 34.10525971 19.13037109 38.19091797 C19.1246738 43.44046516 19.12795274 48.68996122 19.13394356 53.93950653 C19.13754883 57.96108387 19.13641074 61.98264899 19.13381577 66.00422668 C19.1331464 67.94041449 19.13397525 69.87660339 19.13629532 71.81278992 C19.13882129 74.51389524 19.13498205 77.21491659 19.12939453 79.91601562 C19.13141876 80.72436356 19.13344299 81.53271149 19.13552856 82.36555481 C19.11426248 87.88573752 19.11426248 87.88573752 18 89 C12.06 89 6.12 89 0 89 C0 59.63 0 30.26 0 0 Z " fill="#2B4D66" transform="translate(386,73)"/>
<path d="M0 0 C5.94 0 11.88 0 18 0 C19.7974182 1.7974182 19.12630946 4.24137962 19.13552856 6.63444519 C19.13350433 7.44279312 19.1314801 8.25114105 19.12939453 9.08398438 C19.13114685 9.93108475 19.13289917 10.77818512 19.13470459 11.6509552 C19.13912409 14.46524066 19.13618477 17.27946384 19.1328125 20.09375 C19.13348551 22.04048678 19.13445551 23.98722347 19.13571167 25.93395996 C19.13718878 30.01962075 19.13503368 34.10525971 19.13037109 38.19091797 C19.1246738 43.44046516 19.12795274 48.68996122 19.13394356 53.93950653 C19.13754883 57.96108387 19.13641074 61.98264899 19.13381577 66.00422668 C19.1331464 67.94041449 19.13397525 69.87660339 19.13629532 71.81278992 C19.13882129 74.51389524 19.13498205 77.21491659 19.12939453 79.91601562 C19.13141876 80.72436356 19.13344299 81.53271149 19.13552856 82.36555481 C19.11426248 87.88573752 19.11426248 87.88573752 18 89 C12.06 89 6.12 89 0 89 C0 59.63 0 30.26 0 0 Z " fill="#2B4D66" transform="translate(311,28)"/>
<path d="M0 0 C3.54122827 -0.14601614 7.08167644 -0.2343056 10.625 -0.3125 C11.62402344 -0.35439453 12.62304688 -0.39628906 13.65234375 -0.43945312 C21.99630922 -0.57759825 21.99630922 -0.57759825 25.6484375 2.39453125 C29.33365041 6.47764921 29.13480825 9.35374867 29.09765625 14.6328125 C29.0962413 15.38464813 29.09482635 16.13648376 29.09336853 16.91110229 C29.08776465 19.3157751 29.07521157 21.72035527 29.0625 24.125 C29.0574855 25.75390491 29.0529225 27.38281127 29.04882812 29.01171875 C29.03864424 33.00787702 29.01906972 37.00383465 29 41 C22.4 41 15.8 41 9 41 C8.96261719 38.83179688 8.92523438 36.66359375 8.88671875 34.4296875 C8.84042089 32.31467985 8.78921764 30.1998434 8.73754883 28.08496094 C8.70442865 26.62250292 8.67635695 25.15992105 8.65356445 23.69726562 C8.61977825 21.58670597 8.5674562 19.47726814 8.51171875 17.3671875 C8.48553467 16.09987793 8.45935059 14.83256836 8.43237305 13.52685547 C7.79489956 8.32700117 6.2321911 5.08891306 2.3125 1.625 C1.549375 1.08875 0.78625 0.5525 0 0 Z " fill="#F3DD45" transform="translate(365,463)"/>
<path d="M0 0 C0.87269531 -0.0038269 1.74539062 -0.00765381 2.64453125 -0.01159668 C4.48699092 -0.0143149 6.32948924 -0.00695994 8.171875 0.00976562 C10.99045934 0.03117752 13.80649485 0.00996199 16.625 -0.015625 C18.41667229 -0.01298171 20.20834299 -0.00785669 22 0 C22.84175781 -0.00809692 23.68351562 -0.01619385 24.55078125 -0.02453613 C30.36780689 0.06858626 30.36780689 0.06858626 33.52734375 2.38085938 C35.57516513 5.37111313 35.65255613 6.97844439 35 10.53125 C33.01788448 13.16259563 31.4148302 15.17909962 28.11450195 16.00054932 C25.85364775 16.19264933 23.64385726 16.22439077 21.375 16.1953125 C20.1382251 16.20248795 20.1382251 16.20248795 18.87646484 16.20980835 C17.13832687 16.21320122 15.40012456 16.20404153 13.66210938 16.18310547 C11.00766175 16.15632729 8.35744175 16.18286996 5.703125 16.21484375 C4.01040737 16.21153954 2.31769237 16.20513306 0.625 16.1953125 C-0.16471191 16.20543365 -0.95442383 16.21555481 -1.76806641 16.22598267 C-5.9765724 16.13686284 -7.57117758 15.86673802 -11.00390625 13.18115234 C-13 10.53125 -13 10.53125 -13.5625 7.46875 C-12.09340234 -0.20320443 -6.56647455 -0.06316335 0 0 Z " fill="#E3E9EE" transform="translate(227,349.46875)"/>
<path d="M0 0 C2.949375 -0.020625 5.89875 -0.04125 8.9375 -0.0625 C9.86812256 -0.071604 10.79874512 -0.08070801 11.75756836 -0.09008789 C12.48596924 -0.09258545 13.21437012 -0.09508301 13.96484375 -0.09765625 C14.7137085 -0.10289307 15.46257324 -0.10812988 16.23413086 -0.11352539 C18 0 18 0 19 1 C19.10082764 3.43660446 19.13972603 5.84424701 19.1328125 8.28125 C19.13424759 9.37427429 19.13424759 9.37427429 19.13571167 10.48937988 C19.13639335 12.0327971 19.13453988 13.57621717 19.13037109 15.11962891 C19.12502262 17.489974 19.13031642 19.86012959 19.13671875 22.23046875 C19.13605797 23.72656292 19.1347768 25.22265697 19.1328125 26.71875 C19.13483673 27.43228638 19.13686096 28.14582275 19.13894653 28.88098145 C19.11495191 33.88504809 19.11495191 33.88504809 18 35 C16.65732587 35.08631874 15.31025678 35.10706473 13.96484375 35.09765625 C12.87224243 35.09390991 12.87224243 35.09390991 11.75756836 35.09008789 C10.8269458 35.08098389 9.89632324 35.07187988 8.9375 35.0625 C4.5134375 35.0315625 4.5134375 35.0315625 0 35 C0 23.45 0 11.9 0 0 Z " fill="#F3DD45" transform="translate(386,378)"/>
<path d="M0 0 C2.949375 -0.020625 5.89875 -0.04125 8.9375 -0.0625 C9.86812256 -0.071604 10.79874512 -0.08070801 11.75756836 -0.09008789 C12.48596924 -0.09258545 13.21437012 -0.09508301 13.96484375 -0.09765625 C14.7137085 -0.10289307 15.46257324 -0.10812988 16.23413086 -0.11352539 C18 0 18 0 19 1 C19.10082764 3.43660446 19.13972603 5.84424701 19.1328125 8.28125 C19.13424759 9.37427429 19.13424759 9.37427429 19.13571167 10.48937988 C19.13639335 12.0327971 19.13453988 13.57621717 19.13037109 15.11962891 C19.12502262 17.489974 19.13031642 19.86012959 19.13671875 22.23046875 C19.13605797 23.72656292 19.1347768 25.22265697 19.1328125 26.71875 C19.13483673 27.43228638 19.13686096 28.14582275 19.13894653 28.88098145 C19.11495191 33.88504809 19.11495191 33.88504809 18 35 C16.65732587 35.08631874 15.31025678 35.10706473 13.96484375 35.09765625 C12.87224243 35.09390991 12.87224243 35.09390991 11.75756836 35.09008789 C10.8269458 35.08098389 9.89632324 35.07187988 8.9375 35.0625 C4.5134375 35.0315625 4.5134375 35.0315625 0 35 C0 23.45 0 11.9 0 0 Z " fill="#F3DD45" transform="translate(386,320)"/>
<path d="M0 0 C3.77570153 1.18864678 4.48461438 1.70427315 6.375 5.0625 C6.76318359 8.03930664 6.76318359 8.03930664 6.7734375 11.47265625 C6.77923828 13.32793945 6.77923828 13.32793945 6.78515625 15.22070312 C6.77355469 16.50912109 6.76195312 17.79753906 6.75 19.125 C6.76160156 20.41728516 6.77320313 21.70957031 6.78515625 23.04101562 C6.78128906 24.27658203 6.77742188 25.51214844 6.7734375 26.78515625 C6.77005371 27.91703369 6.76666992 29.04891113 6.76318359 30.21508789 C6.375 33.0625 6.375 33.0625 4.98486328 34.92993164 C2.85980942 36.42494603 1.45630775 36.46331308 -1.125 36.4375 C-2.28515625 36.44910156 -2.28515625 36.44910156 -3.46875 36.4609375 C-6.16007776 35.96362694 -7.00534029 35.24509022 -8.625 33.0625 C-10.30759037 27.90858749 -9.66453404 22.46919209 -9.5 17.125 C-9.4896875 16.04025391 -9.479375 14.95550781 -9.46875 13.83789062 C-9.21458788 5.88554885 -9.21458788 5.88554885 -6.296875 1.8125 C-3.625 0.0625 -3.625 0.0625 0 0 Z " fill="#F4DD45" transform="translate(331.625,475.9375)"/>
<path d="M0 0 C3.80227969 1.12660139 4.47271081 1.64355876 6.375 5 C7.005436 9.47666697 6.83840131 13.98375358 6.8125 18.5 C6.8424707 20.35431641 6.8424707 20.35431641 6.87304688 22.24609375 C6.87240234 23.43332031 6.87175781 24.62054688 6.87109375 25.84375 C6.87387329 27.47086914 6.87387329 27.47086914 6.87670898 29.13085938 C6.2612723 32.65037854 5.14447624 33.81690231 2.375 36 C0.375 36.56640625 0.375 36.56640625 -1.625 36.5625 C-2.615 36.59537109 -2.615 36.59537109 -3.625 36.62890625 C-6.77007465 35.6399277 -7.83023797 33.69826496 -9.625 31 C-10.29299318 26.48873815 -9.90474085 21.98523437 -9.6875 17.4375 C-9.66365234 16.20580078 -9.63980469 14.97410156 -9.61523438 13.70507812 C-9.56818359 12.52236328 -9.52113281 11.33964844 -9.47265625 10.12109375 C-9.4109021 8.50352173 -9.4109021 8.50352173 -9.34790039 6.85327148 C-8.05861756 1.76450134 -5.08715851 0 0 0 Z " fill="#F4DD45" transform="translate(212.625,476)"/>
<path d="M0 0 C4.39785492 1.30306813 4.39785492 1.30306813 6.375 4 C7.17356566 8.41236032 7.16591021 12.89819421 7.3125 17.375 C7.41401367 19.22351563 7.41401367 19.22351563 7.51757812 21.109375 C7.56205078 22.29789062 7.60652344 23.48640625 7.65234375 24.7109375 C7.69609131 25.79681152 7.73983887 26.88268555 7.78491211 28.00146484 C7.27510869 31.73071175 5.98379932 33.34345479 3.375 36 C1.375 36.62890625 1.375 36.62890625 -0.625 36.5625 C-1.285 36.56378906 -1.945 36.56507813 -2.625 36.56640625 C-5.54396595 35.73974597 -6.72037016 34.34007812 -8.625 32 C-9.45490379 27.56105922 -9.22760102 23.07032628 -9.1875 18.5625 C-9.21134766 17.33466797 -9.23519531 16.10683594 -9.25976562 14.84179688 C-9.2433898 4.81433245 -9.2433898 4.81433245 -6.31640625 1.65234375 C-3.625 0 -3.625 0 0 0 Z " fill="#F4DD45" transform="translate(152.625,476)"/>
<path d="M0 0 C3.77287066 1.18775558 4.45290731 1.73456606 6.375 5.0625 C7.14247702 9.33671593 7.16380348 13.66419821 7.3125 18 C7.41401367 19.77020508 7.41401367 19.77020508 7.51757812 21.57617188 C7.56205078 22.71505859 7.60652344 23.85394531 7.65234375 25.02734375 C7.69609131 26.0649585 7.73983887 27.10257324 7.78491211 28.17163086 C7.26660889 31.82691878 5.92349185 33.44817777 3.375 36.0625 C1.375 36.69140625 1.375 36.69140625 -0.625 36.625 C-1.285 36.62628906 -1.945 36.62757813 -2.625 36.62890625 C-5.54396595 35.80224597 -6.72037016 34.40257812 -8.625 32.0625 C-9.45490379 27.62355922 -9.22760102 23.13282628 -9.1875 18.625 C-9.21134766 17.39716797 -9.23519531 16.16933594 -9.25976562 14.90429688 C-9.24338981 4.87684052 -9.24338981 4.87684052 -6.31640625 1.71875 C-3.625 0.0625 -3.625 0.0625 0 0 Z " fill="#F4DC45" transform="translate(301.625,475.9375)"/>
<path d="M0 0 C3.76827138 1.18630766 4.44978209 1.74346397 6.375 5.0625 C7.11364088 9.17086115 7.11760262 13.33184687 7.25 17.5 C7.30929688 18.63244141 7.36859375 19.76488281 7.4296875 20.93164062 C7.4709375 22.02541016 7.5121875 23.11917969 7.5546875 24.24609375 C7.59319824 25.24181396 7.63170898 26.23753418 7.67138672 27.26342773 C7.29127109 30.85323473 5.94118371 33.49631629 3.375 36.0625 C1.4140625 36.265625 1.4140625 36.265625 -1 36.3125 C-1.79148438 36.33828125 -2.58296875 36.3640625 -3.3984375 36.390625 C-6.24699498 35.97083758 -6.91407143 35.36356972 -8.625 33.0625 C-9.30623495 28.46891689 -9.13428609 23.82590293 -9.125 19.1875 C-9.15335938 17.90746094 -9.18171875 16.62742187 -9.2109375 15.30859375 C-9.23284931 4.82379367 -9.23284931 4.82379367 -6.3203125 1.68359375 C-3.625 0.0625 -3.625 0.0625 0 0 Z " fill="#F4DD45" transform="translate(182.625,475.9375)"/>
<path d="M0 0 C3.80227969 1.12660139 4.47271081 1.64355876 6.375 5 C7.005436 9.47666697 6.83840131 13.98375358 6.8125 18.5 C6.8424707 20.35431641 6.8424707 20.35431641 6.87304688 22.24609375 C6.87240234 23.43332031 6.87175781 24.62054688 6.87109375 25.84375 C6.87387329 27.47086914 6.87387329 27.47086914 6.87670898 29.13085938 C6.2612723 32.65037854 5.14447624 33.81690231 2.375 36 C0.375 36.56640625 0.375 36.56640625 -1.625 36.5625 C-2.615 36.59537109 -2.615 36.59537109 -3.625 36.62890625 C-6.77007465 35.6399277 -7.83023797 33.69826496 -9.625 31 C-10.29299318 26.48873815 -9.90474085 21.98523437 -9.6875 17.4375 C-9.66365234 16.20580078 -9.63980469 14.97410156 -9.61523438 13.70507812 C-9.56818359 12.52236328 -9.52113281 11.33964844 -9.47265625 10.12109375 C-9.4109021 8.50352173 -9.4109021 8.50352173 -9.34790039 6.85327148 C-8.05861756 1.76450134 -5.08715851 0 0 0 Z " fill="#F4DD45" transform="translate(361.625,476)"/>
<path d="M0 0 C4.39785492 1.30306813 4.39785492 1.30306813 6.375 4 C7.17356566 8.41236032 7.16591021 12.89819421 7.3125 17.375 C7.41401367 19.22351563 7.41401367 19.22351563 7.51757812 21.109375 C7.56205078 22.29789062 7.60652344 23.48640625 7.65234375 24.7109375 C7.69609131 25.79681152 7.73983887 26.88268555 7.78491211 28.00146484 C7.27510869 31.73071175 5.98379932 33.34345479 3.375 36 C1.375 36.62890625 1.375 36.62890625 -0.625 36.5625 C-1.285 36.56378906 -1.945 36.56507813 -2.625 36.56640625 C-5.54396595 35.73974597 -6.72037016 34.34007812 -8.625 32 C-9.45490379 27.56105922 -9.22760102 23.07032628 -9.1875 18.5625 C-9.21134766 17.33466797 -9.23519531 16.10683594 -9.25976562 14.84179688 C-9.2433898 4.81433245 -9.2433898 4.81433245 -6.31640625 1.65234375 C-3.625 0 -3.625 0 0 0 Z " fill="#F4DD45" transform="translate(271.625,476)"/>
<path d="M0 0 C3.85400403 1.10114401 5.06787123 1.88718933 7.5 5 C8.01757812 7.86914062 8.01757812 7.86914062 8.03125 11.15625 C8.03640625 12.34347656 8.0415625 13.53070313 8.046875 14.75390625 C8.03140625 15.99011719 8.0159375 17.22632813 8 18.5 C8.01546875 19.73621094 8.0309375 20.97242188 8.046875 22.24609375 C8.04171875 23.43332031 8.0365625 24.62054688 8.03125 25.84375 C8.02673828 26.92849609 8.02222656 28.01324219 8.01757812 29.13085938 C7.38418976 32.64198205 6.26505285 33.81809963 3.5 36 C1.5 36.56640625 1.5 36.56640625 -0.5 36.5625 C-1.49 36.59537109 -1.49 36.59537109 -2.5 36.62890625 C-5.64590484 35.63966664 -6.70627969 33.69982645 -8.5 31 C-8.92578125 28.01733398 -8.92578125 28.01733398 -8.8125 24.74609375 C-8.77253906 23.56208984 -8.73257813 22.37808594 -8.69140625 21.15820312 C-8.62824219 19.93037109 -8.56507813 18.70253906 -8.5 17.4375 C-8.46777344 16.20580078 -8.43554688 14.97410156 -8.40234375 13.70507812 C-8.01853805 4.67580299 -8.01853805 4.67580299 -5.671875 1.61743164 C-3.5 0 -3.5 0 0 0 Z " fill="#F4DD45" transform="translate(241.5,476)"/>
<path d="M0 0 C1.64548828 -0.00773437 1.64548828 -0.00773437 3.32421875 -0.015625 C4.46503906 -0.00015625 5.60585937 0.0153125 6.78125 0.03125 C8.49248047 0.00804687 8.49248047 0.00804687 10.23828125 -0.015625 C11.33527344 -0.01046875 12.43226563 -0.0053125 13.5625 0 C15.06393555 0.00676758 15.06393555 0.00676758 16.59570312 0.01367188 C19.99034648 0.66791223 21.17806425 1.8355486 23.28125 4.53125 C23.84375 7.46875 23.84375 7.46875 23.28125 10.53125 C21.17762466 13.60299538 19.52088291 15.29130927 15.79516602 16.01245117 C12.77530958 16.20569102 9.80654083 16.21290339 6.78125 16.15625 C5.23244141 16.18525391 5.23244141 16.18525391 3.65234375 16.21484375 C-1.2485403 16.18322514 -3.87768537 16.15147067 -7.90234375 13.18359375 C-9.71875 10.53125 -9.71875 10.53125 -10.28125 7.46875 C-9.15028594 1.56260433 -5.66340794 0.02552727 0 0 Z " fill="#37607D" transform="translate(123.71875,349.46875)"/>
<path d="M0 0 C1.54880859 -0.02320313 1.54880859 -0.02320313 3.12890625 -0.046875 C7.68710389 -0.02334882 10.67155775 0.02834699 14.68359375 2.3125 C16.5 4.5 16.5 4.5 17.0625 8 C16.40773884 12.07406943 15.6940177 13.00442183 12.5 15.5 C9.81445312 16.01757812 9.81445312 16.01757812 6.78125 16.03125 C5.68425781 16.03640625 4.58726562 16.0415625 3.45703125 16.046875 C2.31621094 16.03140625 1.17539063 16.0159375 0 16 C-1.71123047 16.02320313 -1.71123047 16.02320313 -3.45703125 16.046875 C-4.55402344 16.04171875 -5.65101562 16.0365625 -6.78125 16.03125 C-8.28268555 16.02448242 -8.28268555 16.02448242 -9.81445312 16.01757812 C-13.22188427 15.36087321 -14.40772202 14.22556352 -16.5 11.5 C-17.0625 8 -17.0625 8 -16.5 4.5 C-12.05925072 -0.84799914 -6.40195379 -0.09590942 0 0 Z " fill="#37607D" transform="translate(130.5,319.5)"/>
<path d="M0 0 C1.04736328 -0.00515625 2.09472656 -0.0103125 3.17382812 -0.015625 C4.26244141 -0.00015625 5.35105469 0.0153125 6.47265625 0.03125 C7.55740234 0.01578125 8.64214844 0.0003125 9.75976562 -0.015625 C17.63272806 0.02308655 17.63272806 0.02308655 21.75390625 2.34375 C23.53515625 4.53125 23.53515625 4.53125 24.09765625 8.03125 C23.44289509 12.10531943 22.72917395 13.03567183 19.53515625 15.53125 C16.84960938 16.04882812 16.84960938 16.04882812 13.81640625 16.0625 C12.71941406 16.06765625 11.62242187 16.0728125 10.4921875 16.078125 C9.35136719 16.06265625 8.21054688 16.0471875 7.03515625 16.03125 C5.32392578 16.05445313 5.32392578 16.05445313 3.578125 16.078125 C2.48113281 16.07296875 1.38414063 16.0678125 0.25390625 16.0625 C-1.2475293 16.05573242 -1.2475293 16.05573242 -2.77929688 16.04882812 C-6.18656885 15.39215389 -7.37554469 14.2592846 -9.46484375 11.53125 C-9.96484375 8.03125 -9.96484375 8.03125 -9.46484375 4.53125 C-6.5870821 0.80899566 -4.64728264 0.02200827 0 0 Z " fill="#365F7D" transform="translate(123.46484375,378.46875)"/>
<path d="M0 0 C1.21042969 0.00193359 1.21042969 0.00193359 2.4453125 0.00390625 C6.52290851 0.06446461 9.44303809 0.19433545 13 2.375 C14.55460305 5.48420609 14.72720693 9.00583028 14 12.375 C12.21243325 14.53966987 10.72514503 15.27002316 7.9543457 15.67114258 C5.46202524 15.81626373 2.996314 15.83320849 0.5 15.8125 C-0.78197266 15.8424707 -0.78197266 15.8424707 -2.08984375 15.87304688 C-8.30120866 15.86820182 -8.30120866 15.86820182 -11.5625 13.56640625 C-13.67881875 10.34017032 -13.53844119 8.14408836 -13 4.375 C-9.61491268 -0.6846252 -5.5412943 -0.16818625 0 0 Z " fill="#37607D" transform="translate(392,24.625)"/>
<path d="M0 0 C0.79857422 -0.01546875 1.59714844 -0.0309375 2.41992188 -0.046875 C6.41780887 -0.02037699 8.59638001 0.22128908 12.09375 2.3125 C14.0625 4.5 14.0625 4.5 14.625 8 C14.0625 11.5 14.0625 11.5 12.62109375 13.69140625 C8.75051457 16.42740344 5.18567489 16.04558327 0.5625 15.9375 C-0.29214844 15.94458984 -1.14679688 15.95167969 -2.02734375 15.95898438 C-5.6313196 15.9224386 -8.24736522 15.84506739 -11.5 14.21875 C-13.49201242 11.83699602 -13.4221379 9.55911598 -13.46875 6.53515625 C-11.65228643 -0.42350199 -6.00035297 -0.11566945 0 0 Z " fill="#37607D" transform="translate(118.9375,24.5)"/>
</svg>
